<svg width="51" height="51" viewBox="0 0 51 51" fill="none" xmlns="http://www.w3.org/2000/svg">
<circle cx="25.5" cy="25.5" r="25" stroke="#4886FF"/>
<path d="M38.1089 34.8353C38.1089 35.5389 37.8294 36.2138 37.3319 36.7113C36.8343 37.2089 36.1595 37.4884 35.4558 37.4884H14.2308C13.5271 37.4884 12.8523 37.2089 12.3547 36.7113C11.8572 36.2138 11.5776 35.5389 11.5776 34.8353V16.2634C11.5776 15.5597 11.8572 14.8849 12.3547 14.3873C12.8523 13.8898 13.5271 13.6102 14.2308 13.6102H20.8636L23.5167 17.5899H35.4558C36.1595 17.5899 36.8343 17.8694 37.3319 18.367C37.8294 18.8646 38.1089 19.5394 38.1089 20.2431V34.8353Z" stroke="#4886FF" stroke-width="2" stroke-linecap="round" stroke-linejoin="round"/>
</svg>
