<svg width="51" height="51" viewBox="0 0 51 51" fill="none" xmlns="http://www.w3.org/2000/svg">
<circle cx="25.5" cy="25.5" r="25" stroke="#4886FF"/>
<path d="M35 25.5C35.0034 26.8199 34.6951 28.1219 34.1 29.3C33.3944 30.7118 32.3098 31.8992 30.9674 32.7293C29.6251 33.5594 28.0782 33.9994 26.5 34C25.1801 34.0035 23.8781 33.6951 22.7 33.1L17 35L18.9 29.3C18.3049 28.1219 17.9966 26.8199 18 25.5C18.0006 23.9218 18.4406 22.3749 19.2707 21.0326C20.1008 19.6903 21.2883 18.6056 22.7 17.9C23.8781 17.305 25.1801 16.9966 26.5 17H27C29.0843 17.115 31.053 17.9948 32.5291 19.4709C34.0052 20.947 34.885 22.9157 35 25V25.5Z" stroke="#4886FF" stroke-width="2" stroke-linecap="round" stroke-linejoin="round"/>
</svg>
