<svg width="512" height="512" viewBox="0 0 512 512" fill="none" xmlns="http://www.w3.org/2000/svg">
<g clip-path="url(#clip0)">
<path d="M469.333 85.333H249.75L210.208 45.791C208.208 43.791 205.5 42.666 202.666 42.666H42.666C19.146 42.667 0 61.802 0 85.333V426.666C0 450.197 19.146 469.333 42.667 469.333H469.334C492.855 469.333 512.001 450.198 512.001 426.666V128C512 104.469 492.854 85.333 469.333 85.333ZM330.667 170.667C360.083 170.667 384 194.594 384 224C384 253.406 360.083 277.333 330.667 277.333C301.251 277.333 277.333 253.406 277.333 224C277.333 194.594 301.25 170.667 330.667 170.667ZM426.667 359.333C426.667 372.937 416.417 384 403.813 384H257.521C244.917 384 234.667 372.937 234.667 359.333V352.5C234.667 334.677 243.5 318.396 257.709 310.01C274.75 299.969 301.25 288 330.667 288C360.084 288 386.584 299.969 403.625 310.01C417.833 318.395 426.667 334.677 426.667 352.5V359.333Z" fill="#1978DC"/>
</g>
<defs>
<clipPath id="clip0">
<rect width="512" height="512" fill="white"/>
</clipPath>
</defs>
</svg>
