<svg width="512" height="512" viewBox="0 0 512 512" fill="none" xmlns="http://www.w3.org/2000/svg">
<path d="M256 373.333C256 296.875 318.208 234.666 394.667 234.666C415.23 234.666 435.219 239.218 454.084 248.197C457.407 249.76 461.282 249.53 464.365 247.582C467.459 245.624 469.334 242.217 469.334 238.561V106.667C469.334 83.136 450.199 64 426.667 64H228.417L188.875 24.458C186.875 22.458 184.167 21.333 181.333 21.333H42.667C19.135 21.333 0 40.469 0 64V362.667C0 386.198 19.135 405.334 42.667 405.334H247.032C250.126 405.334 253.063 403.99 255.095 401.657C257.116 399.324 258.033 396.219 257.595 393.157C256.51 385.573 256 379.271 256 373.333Z" fill="#1978DC"/>
<path d="M394.667 256C329.969 256 277.334 308.635 277.334 373.333C277.334 438.031 329.969 490.666 394.667 490.666C459.365 490.666 512 438.031 512 373.333C512 308.635 459.365 256 394.667 256ZM444.875 359.542C442.792 361.625 440.062 362.667 437.333 362.667C434.604 362.667 431.875 361.625 429.791 359.542L405.333 335.084V437.334C405.333 443.23 400.562 448.001 394.666 448.001C388.77 448.001 384 443.229 384 437.333V335.083L359.542 359.541C355.375 363.708 348.625 363.708 344.459 359.541C340.292 355.374 340.292 348.624 344.459 344.458L387.126 301.791C391.293 297.624 398.043 297.624 402.209 301.791L444.876 344.458C449.042 348.625 449.042 355.375 444.875 359.542Z" fill="#484B5C"/>
</svg>
