<svg width="512" height="512" viewBox="0 0 512 512" fill="none" xmlns="http://www.w3.org/2000/svg">
<g clip-path="url(#clip0)">
<path d="M459.729 260.005C465.177 259.463 469.333 254.87 469.333 249.39V106.672C469.333 83.1409 450.198 64.0049 426.666 64.0049H228.416L188.874 24.4629C186.874 22.4629 184.166 21.3379 181.332 21.3379H42.667C19.135 21.3389 0 40.4739 0 64.0049V362.672C0 386.203 19.135 405.339 42.667 405.339H266.667C272.563 405.339 277.334 400.568 277.334 394.672V307.203C277.334 290.693 289.719 277.005 306.147 275.359L459.729 260.005Z" fill="#1978DC"/>
<path d="M372.271 290.182L308.271 296.578C302.813 297.12 298.667 301.713 298.667 307.193V362.662C298.667 368.558 303.438 373.329 309.334 373.329H373.334C379.23 373.329 384.001 368.558 384.001 362.662V300.797C384.001 297.787 382.73 294.912 380.501 292.891C378.25 290.87 375.25 289.911 372.271 290.182Z" fill="#484B5C"/>
<path d="M508.5 280.089C506.25 278.058 503.271 277.12 500.271 277.381L414.938 285.912C409.48 286.454 405.334 291.047 405.334 296.527V362.662C405.334 368.558 410.105 373.329 416.001 373.329H501.334C507.23 373.329 512.001 368.558 512.001 362.662V287.995C512 284.984 510.729 282.109 508.5 280.089Z" fill="#484B5C"/>
<path d="M501.333 394.661H416C410.104 394.661 405.333 399.432 405.333 405.328V471.463C405.333 476.942 409.479 481.536 414.937 482.078L500.27 490.609C500.624 490.64 500.978 490.661 501.333 490.661C503.958 490.661 506.521 489.682 508.5 487.901C510.729 485.88 512 483.005 512 479.995V405.328C512 399.432 507.229 394.661 501.333 394.661Z" fill="#484B5C"/>
<path d="M373.333 394.661H309.333C303.437 394.661 298.666 399.432 298.666 405.328V460.797C298.666 466.276 302.812 470.87 308.27 471.412L372.27 477.808C372.624 477.839 372.978 477.86 373.333 477.86C375.958 477.86 378.521 476.881 380.5 475.1C382.729 473.079 384 470.204 384 467.194V405.329C384 399.432 379.229 394.661 373.333 394.661Z" fill="#484B5C"/>
</g>
<defs>
<clipPath id="clip0">
<rect width="512" height="512" fill="white"/>
</clipPath>
</defs>
</svg>
