<svg width="512" height="512" viewBox="0 0 512 512" fill="none" xmlns="http://www.w3.org/2000/svg">
<path d="M510.313 408.438C508.615 405.803 505.844 404.032 502.74 403.625C487.521 401.604 476.042 389.125 476.042 374.583C476.042 361.875 484.667 350.677 497.521 346.698C500.729 345.708 503.281 343.26 504.406 340.104C505.541 336.937 505.114 333.437 503.26 330.635C490.833 311.812 470.968 298.666 454.968 298.666C444.27 298.666 434.614 301.791 426.093 304.551C419.51 306.686 413.291 308.707 408.155 308.707C403.02 308.707 396.801 306.686 390.217 304.551C381.696 301.791 372.04 298.666 361.342 298.666C336.394 298.666 298.665 330.947 298.665 379.604C298.665 425.479 333.769 490.667 366.55 490.667C382.227 490.667 391.8 486.532 398.79 483.521C407.634 479.708 408.759 479.729 417.519 483.521C424.509 486.531 434.082 490.667 449.769 490.667C474.311 490.667 500.436 453.386 511.529 417.334C512.448 414.334 512.01 411.084 510.313 408.438Z" fill="#484B5C"/>
<path d="M458.667 213.333C429.261 213.333 405.334 237.26 405.334 266.666C405.334 272.562 410.105 277.333 416.001 277.333C445.407 277.333 469.334 253.406 469.334 224C469.333 218.104 464.563 213.333 458.667 213.333Z" fill="#484B5C"/>
<path d="M277.333 379.604C277.333 316.239 326.26 277.333 361.343 277.333C365.062 277.333 368.593 277.635 371.989 278.093C375.01 278.572 378.072 277.155 380.395 275.124C382.708 273.103 383.999 269.749 383.999 266.666C384 225.5 417.5 192 458.667 192C464.563 192 469.334 187.229 469.334 181.333V106.666C469.334 83.135 450.199 63.999 426.667 63.999H228.417L188.875 24.457C186.875 22.457 184.167 21.332 181.333 21.332H42.667C19.135 21.333 0 40.469 0 64V362.667C0 386.198 19.135 405.334 42.667 405.334H267.646C270.688 405.334 273.573 404.042 275.604 401.771C277.625 399.511 278.583 396.49 278.25 393.469C277.708 388.719 277.333 384.052 277.333 379.604Z" fill="#1978DC"/>
</svg>
