<svg width="470" height="470" viewBox="0 0 470 470" fill="none" xmlns="http://www.w3.org/2000/svg">
<g clip-path="url(#clip0)">
<path d="M324.75 19.8755L356.75 41.2085C360.01 43.3855 364.25 43.5835 367.698 41.7395C371.167 39.8855 373.333 36.2705 373.333 32.3335V29.6985C403.771 41.6145 428.052 65.8955 439.969 96.3335H437.334C433.396 96.3335 429.782 98.5005 427.928 101.968C426.074 105.437 426.282 109.645 428.459 112.916L449.792 144.916C451.802 147.937 455.167 149.666 458.667 149.666C459.698 149.666 460.74 149.52 461.761 149.208C466.261 147.843 469.334 143.699 469.334 139.001C469.333 62.5415 407.125 0.333496 330.667 0.333496C325.969 0.333496 321.823 3.4065 320.459 7.9065C319.094 12.4065 320.844 17.2705 324.75 19.8755Z" fill="#484B5C"/>
<path d="M437.333 213.666H292.417L274.188 195.458C272.188 193.458 269.469 192.333 266.646 192.333H160C142.354 192.333 128 206.687 128 224.333V437.667C128 455.312 142.354 469.667 160 469.667H437.333C454.979 469.667 469.333 455.312 469.333 437.667V245.666C469.333 228.02 454.979 213.666 437.333 213.666Z" fill="#1978DC"/>
<path d="M266.646 171C275.188 171 283.219 174.323 289.261 180.354L298.115 189.208C300.115 191.208 302.823 192.333 305.657 192.333H330.667C336.563 192.333 341.334 187.562 341.334 181.666V96.3335C341.334 78.6875 326.98 64.3335 309.334 64.3335H164.417L146.188 46.1255C144.188 44.1255 141.469 43.0005 138.646 43.0005H32C14.354 43.0005 0 57.3545 0 75.0005V288.333C0 305.979 14.354 320.333 32 320.333H96C101.896 320.333 106.667 315.562 106.667 309.667V224.333C106.667 194.927 130.594 171 160 171H266.646Z" fill="#484B5C"/>
</g>
<defs>
<clipPath id="clip0">
<rect width="469.333" height="469.333" fill="white" transform="translate(0 0.333496)"/>
</clipPath>
</defs>
</svg>
