<svg width="513" height="512" viewBox="0 0 513 512" fill="none" xmlns="http://www.w3.org/2000/svg">
<g clip-path="url(#clip0)">
<path d="M256.333 373.333C256.333 296.875 318.541 234.666 395 234.666C415.563 234.666 435.552 239.218 454.417 248.197C457.74 249.76 461.615 249.53 464.698 247.582C467.792 245.624 469.667 242.217 469.667 238.561V106.667C469.667 83.136 450.532 64 427 64H228.75L189.208 24.458C187.208 22.458 184.5 21.333 181.666 21.333H43C19.468 21.333 0.333008 40.469 0.333008 64V362.667C0.333008 386.198 19.468 405.334 43 405.334H247.365C250.459 405.334 253.396 403.99 255.428 401.657C257.449 399.324 258.366 396.219 257.928 393.157C256.843 385.573 256.333 379.271 256.333 373.333Z" fill="#1978DC"/>
<path d="M395 256C330.302 256 277.667 308.635 277.667 373.333C277.667 438.031 330.302 490.666 395 490.666C459.698 490.666 512.333 438.031 512.333 373.333C512.333 308.635 459.698 256 395 256ZM331.01 384L331.009 383.999L331 384C325.104 384 320.333 379.229 320.333 373.333C320.333 332.166 353.833 298.666 395 298.666C419.844 298.666 442.99 310.968 456.906 331.583C460.208 336.458 458.927 343.093 454.041 346.385C449.166 349.708 442.52 348.395 439.239 343.52C429.281 328.791 412.749 319.999 394.999 319.999C379.772 319.999 366.106 326.492 356.378 336.761L367.77 342.458C371.166 344.156 373.405 347.541 373.645 351.333C373.885 355.135 372.082 358.771 368.916 360.875L336.916 382.208C336.721 382.337 336.485 382.285 336.286 382.399C334.714 383.32 332.985 383.986 331.031 383.993C331.031 383.994 331.017 384 331.01 384ZM395 448C370.156 448 347.01 435.698 333.094 415.083C329.792 410.208 331.073 403.573 335.959 400.281C340.834 396.958 347.48 398.25 350.761 403.146C360.719 417.875 377.251 426.667 395.001 426.667C408.593 426.667 420.88 421.4 430.31 412.998C430.255 412.946 430.181 412.93 430.126 412.876L419.459 402.209C417.199 399.949 416.074 396.792 416.386 393.615C416.699 390.438 418.428 387.563 421.084 385.792L453.084 364.459C453.364 364.271 453.428 364.423 453.663 364.301C455.255 363.356 457.012 362.667 459 362.667C464.896 362.667 469.667 367.438 469.667 373.334C469.666 414.5 436.166 448 395 448Z" fill="#484B5C"/>
</g>
<defs>
<clipPath id="clip0">
<rect width="512" height="512" fill="white" transform="translate(0.333008)"/>
</clipPath>
</defs>
</svg>
