<svg width="513" height="512" viewBox="0 0 513 512" fill="none" xmlns="http://www.w3.org/2000/svg">
<g clip-path="url(#clip0)">
<path d="M181.666 277.334H458.999C476.645 277.334 490.999 262.98 490.999 245.334V53.334C490.999 35.688 476.645 21.334 458.999 21.334H314.083L295.854 3.12598C293.854 1.12598 291.135 0.000976562 288.312 0.000976562H181.666C164.02 0.000976562 149.666 14.355 149.666 32.001V245.334C149.666 262.98 164.02 277.334 181.666 277.334Z" fill="#1978DC"/>
<path d="M99.958 294.915L13.083 277.54C9.97901 276.915 6.70801 277.728 4.22901 279.748C1.77001 281.78 0.333008 284.801 0.333008 287.998V458.665C0.333008 464.561 5.10401 469.332 11 469.332H77.833C93.666 469.332 107.291 457.519 109.521 441.863L125.375 330.821C127.77 314.009 116.625 298.238 99.958 294.915Z" fill="#484B5C"/>
<path d="M448.333 373.332C435.015 373.332 412.554 378.079 392.359 383.147C387.415 384.388 384.214 388.928 384.326 394.025C384.33 394.237 384.332 394.451 384.332 394.666C384.332 410.801 377.228 424.968 364.353 434.583C351.874 443.896 335.853 448.239 313.936 448.239C285.232 448.239 246.168 440.805 194.498 425.527C189.166 423.95 185.398 418.648 186.439 413.186C187.642 406.885 193.999 403.113 199.956 404.896C249.248 419.5 287.581 426.906 313.935 426.906C336.373 426.906 346.185 421.531 351.602 417.479C359.06 411.916 362.998 404.031 362.998 394.666C362.998 392.877 362.672 391.266 362.446 389.598C358.408 360.149 319.632 349.634 279.79 341.541C261.29 337.791 247.519 331.156 234.207 324.728C217.79 316.811 202.29 309.332 181.665 309.332C173.488 309.332 164.853 309.927 155.987 311.096C150.389 311.836 146.349 316.855 146.772 322.485C147.082 326.619 146.997 330.329 146.478 333.842L130.624 444.915C130.478 445.915 130.186 446.853 129.936 447.8C129.915 447.894 129.394 449.852 129.373 449.935C128.144 454.945 130.665 460.123 135.373 462.227C186.123 484.935 253.873 511.998 288.331 511.998C329.706 511.998 414.894 470.123 471.248 442.415C485.795 435.265 497.848 429.332 505.728 425.869C509.546 424.192 512.284 420.556 512.328 416.387C512.604 391.054 486.215 373.332 448.333 373.332Z" fill="#484B5C"/>
</g>
<defs>
<clipPath id="clip0">
<rect width="512" height="512" fill="white" transform="translate(0.333008)"/>
</clipPath>
</defs>
</svg>
