<svg width="513" height="512" viewBox="0 0 513 512" fill="none" xmlns="http://www.w3.org/2000/svg">
<g clip-path="url(#clip0)">
<path d="M509.208 472.458L454.591 417.841C463.93 405.375 469.667 390.07 469.667 373.333C469.667 332.166 436.167 298.666 395 298.666C353.833 298.666 320.333 332.167 320.333 373.333C320.333 414.5 353.833 448 395 448C411.737 448 427.042 442.263 439.508 432.924L494.125 487.541C496.208 489.624 498.938 490.666 501.667 490.666C504.396 490.666 507.125 489.624 509.209 487.541C513.375 483.375 513.375 476.625 509.208 472.458ZM395 426.667C365.594 426.667 341.667 402.74 341.667 373.334C341.667 343.928 365.593 320 395 320C424.407 320 448.333 343.927 448.333 373.333C448.333 402.739 424.406 426.667 395 426.667Z" fill="#484B5C"/>
<path d="M299 373.333C299 320.395 342.063 277.333 395 277.333C415.615 277.333 435.521 284.146 452.563 297.052C455.792 299.479 460.157 299.896 463.751 298.094C467.376 296.292 469.668 292.594 469.668 288.542V106.667C469.668 83.136 450.533 64 427.001 64H228.751L189.209 24.458C187.209 22.458 184.501 21.333 181.667 21.333H43C19.468 21.333 0.333008 40.469 0.333008 64V362.667C0.333008 386.198 19.468 405.334 43 405.334H290.49C293.688 405.334 296.73 403.896 298.75 401.417C300.781 398.938 301.583 395.677 300.938 392.532C299.656 386.219 299 379.76 299 373.333Z" fill="#1978DC"/>
</g>
<defs>
<clipPath id="clip0">
<rect width="512" height="512" fill="white" transform="translate(0.333008)"/>
</clipPath>
</defs>
</svg>
