<svg width="513" height="512" viewBox="0 0 513 512" fill="none" xmlns="http://www.w3.org/2000/svg">
<g clip-path="url(#clip0)">
<path d="M459 256C464.896 256 469.667 251.229 469.667 245.333V106.667C469.667 83.136 450.521 64 427 64H228.75L189.208 24.458C187.208 22.458 184.5 21.333 181.666 21.333H43C19.479 21.333 0.333008 40.469 0.333008 64V362.667C0.333008 386.198 19.479 405.334 43 405.334H267C272.896 405.334 277.667 400.563 277.667 394.667V304C277.667 277.531 299.209 256 325.667 256H459Z" fill="#1978DC"/>
<path d="M426.996 309.333V330.666C426.996 336.562 431.767 341.333 437.663 341.333C443.559 341.333 448.33 336.562 448.33 330.666V309.333C448.33 303.437 443.559 298.666 437.663 298.666C431.767 298.667 426.996 303.438 426.996 309.333Z" fill="#484B5C"/>
<path d="M509.208 301.811L487.876 280.479C481.156 273.759 469.666 278.518 469.666 288.021V336.354C469.666 351.082 457.727 363.021 442.999 363.021H368.333C353.605 363.021 341.666 351.082 341.666 336.354V288C341.666 282.108 336.89 277.333 330.999 277.333H325.666C310.938 277.333 298.999 289.272 298.999 304V464C298.999 478.728 310.938 490.667 325.666 490.667H485.666C500.394 490.667 512.333 478.728 512.333 464V309.355C512.333 306.526 511.209 303.813 509.208 301.811ZM469.666 469.333H341.666V394.666C341.666 388.774 346.442 383.999 352.333 383.999H459C464.891 383.999 469.667 388.774 469.667 394.666V469.333H469.666Z" fill="#484B5C"/>
</g>
<defs>
<clipPath id="clip0">
<rect width="512" height="512" fill="white" transform="translate(0.333008)"/>
</clipPath>
</defs>
</svg>
