<svg width="513" height="512" viewBox="0 0 513 512" fill="none" xmlns="http://www.w3.org/2000/svg">
<g clip-path="url(#clip0)">
<path d="M256.333 373.333C256.333 296.875 318.541 234.666 395 234.666C415.563 234.666 435.552 239.218 454.417 248.197C457.74 249.76 461.615 249.53 464.698 247.582C467.792 245.624 469.667 242.217 469.667 238.561V106.667C469.667 83.136 450.532 64 427 64H228.75L189.208 24.458C187.208 22.458 184.5 21.333 181.666 21.333H43C19.468 21.333 0.333008 40.469 0.333008 64V362.667C0.333008 386.198 19.468 405.334 43 405.334H247.365C250.459 405.334 253.396 403.99 255.428 401.657C257.449 399.324 258.366 396.219 257.928 393.157C256.843 385.573 256.333 379.271 256.333 373.333Z" fill="#1978DC"/>
<path d="M395 256C330.302 256 277.667 308.635 277.667 373.333C277.667 438.031 330.302 490.666 395 490.666C459.698 490.666 512.333 438.031 512.333 373.333C512.333 308.635 459.698 256 395 256ZM437.666 384H352.333C346.437 384 341.666 379.229 341.666 373.333C341.666 367.437 346.437 362.666 352.333 362.666H437.666C443.562 362.666 448.333 367.437 448.333 373.333C448.333 379.229 443.562 384 437.666 384Z" fill="#484B5C"/>
</g>
<defs>
<clipPath id="clip0">
<rect width="512" height="512" fill="white" transform="translate(0.333008)"/>
</clipPath>
</defs>
</svg>
