<svg width="513" height="512" viewBox="0 0 513 512" fill="none" xmlns="http://www.w3.org/2000/svg">
<g clip-path="url(#clip0)">
<path d="M107.001 160V352C107.001 369.646 121.355 384 139.001 384H373.668C391.314 384 405.668 369.646 405.668 352V181.333C405.668 163.687 391.314 149.333 373.668 149.333H260.751L242.522 131.125C240.522 129.125 237.803 128 234.98 128H139.001C121.356 128 107.001 142.354 107.001 160Z" fill="#1978DC"/>
<path d="M326.186 9.698L325.107 9.538C324.793 9.419 324.547 9.194 324.218 9.104C302.228 3.063 279.384 0 256.332 0C252.051 0 248.176 2.563 246.509 6.51C244.842 10.458 245.696 15.02 248.676 18.093L305.124 76.312C307.166 78.416 309.937 79.552 312.78 79.552C313.832 79.552 314.884 79.396 315.915 79.083C319.748 77.895 322.603 74.666 323.29 70.718L326.104 54.551C429.639 90.52 493.807 202.787 461.07 316.103C440.119 388.626 380.105 443.343 307.218 462.992L301.695 464.482C296.006 466.016 292.639 471.871 294.173 477.559L299.73 498.157C301.264 503.846 307.121 507.213 312.808 505.677L315.425 504.971C411.053 479.155 487.921 403.558 507.318 306.425C533.942 173.117 451.764 45.359 326.186 9.698Z" fill="#484B5C"/>
<path d="M207.543 435.688C205.501 433.584 202.73 432.448 199.887 432.448C198.835 432.448 197.783 432.604 196.752 432.917C192.919 434.105 190.064 437.334 189.377 441.282L186.563 457.449C83.0272 421.479 18.8592 309.212 51.5962 195.895C72.5472 123.372 132.561 68.6568 205.448 49.0058L210.971 47.5178C216.66 45.9838 220.027 40.1288 218.493 34.4398L212.936 13.8418C211.401 8.15376 205.545 4.78676 199.858 6.32176L197.241 7.02876C101.613 32.8448 24.7452 108.44 5.34619 205.574C-21.2748 338.883 60.9012 466.64 186.48 502.302L187.559 502.462C187.873 502.58 188.119 502.806 188.448 502.896C210.438 508.938 233.281 512 256.333 512C260.614 512 264.489 509.437 266.156 505.49C267.823 501.542 266.969 496.98 263.989 493.907L207.543 435.688Z" fill="#484B5C"/>
</g>
<defs>
<clipPath id="clip0">
<rect width="512" height="512" fill="white" transform="translate(0.333008)"/>
</clipPath>
</defs>
</svg>
