<svg width="513" height="512" viewBox="0 0 513 512" fill="none" xmlns="http://www.w3.org/2000/svg">
<g clip-path="url(#clip0)">
<path d="M504.979 284.344L419.646 256.521C417.479 255.833 415.188 255.833 413.021 256.521L327.688 284.344C323.313 285.782 320.334 289.875 320.334 294.49V350.146C320.334 425.219 332.334 452.646 411.834 489.667C413.251 490.334 414.792 490.667 416.334 490.667C417.876 490.667 419.417 490.334 420.834 489.667C500.333 452.646 512.333 425.219 512.333 350.146V294.49C512.333 289.875 509.354 285.781 504.979 284.344ZM421.208 442.073C419.666 442.865 418 443.25 416.333 443.25C414.395 443.25 412.479 442.729 410.77 441.687C407.603 439.749 405.666 436.302 405.666 432.583V384H373.666C367.77 384 362.999 379.229 362.999 373.333V325.458C362.999 320.843 365.978 316.75 370.353 315.312L413.02 301.395C416.27 300.343 419.833 300.916 422.603 302.905C425.353 304.915 426.999 308.124 426.999 311.54V362.665H458.999C461.916 362.665 464.707 363.863 466.728 365.978C468.728 368.093 469.791 370.936 469.645 373.853C467.958 408.771 457.541 423.438 421.208 442.073Z" fill="#484B5C"/>
<path d="M321.083 264.073L406.416 236.24C412.791 234.157 419.874 234.146 426.249 236.25L455.687 245.844C458.958 246.886 462.5 246.323 465.27 244.334C468.02 242.324 469.666 239.115 469.666 235.699V106.667C469.666 83.136 450.52 64 426.999 64H228.749L189.207 24.458C187.207 22.458 184.499 21.333 181.665 21.333H43C19.479 21.333 0.333008 40.469 0.333008 64V362.667C0.333008 386.198 19.479 405.334 43 405.334H290.896C293.979 405.334 296.896 404.011 298.917 401.699C300.938 399.386 301.875 396.303 301.48 393.261C299.813 380.792 299.001 366.688 299.001 350.146V294.49C299 280.594 307.875 268.365 321.083 264.073Z" fill="#1978DC"/>
</g>
<defs>
<clipPath id="clip0">
<rect width="512" height="512" fill="white" transform="translate(0.333008)"/>
</clipPath>
</defs>
</svg>
