<svg width="512" height="512" viewBox="0 0 512 512" fill="none" xmlns="http://www.w3.org/2000/svg">
<path d="M469.333 170.667H106.667C86.886 170.667 70 183.959 65.292 203.094C65.271 203.167 65.24 203.25 65.219 203.323L2.77097 414.177C2.09397 416.479 2.20797 418.948 3.10397 421.177C9.64597 437.469 25.167 448 42.667 448H405.334C424.438 448 441.053 435.354 446.272 417.052C446.366 416.823 446.449 416.594 446.522 416.354L509.897 226.521C510.105 225.917 510.241 225.292 510.335 224.667C511.448 220.719 512 217 512 213.333C512 189.802 492.865 170.667 469.333 170.667Z" fill="#1978DC"/>
<path d="M9.135 285.396C9.656 285.479 10.166 285.511 10.677 285.511C15.333 285.511 19.542 282.459 20.896 277.876L44.667 197.605C44.698 197.48 44.73 197.365 44.761 197.24C52.053 169.032 77.501 149.334 106.667 149.334H435.375C438.844 149.334 442.094 147.646 444.094 144.813C446.084 141.99 446.584 138.365 445.427 135.094C439.385 118.094 423.271 106.667 405.333 106.667H207.083L167.541 67.125C165.541 65.125 162.833 64 159.999 64H42.667C19.135 64 0 83.135 0 106.667V274.844C0 280.146 3.896 284.635 9.135 285.396Z" fill="#1978DC"/>
</svg>
