<svg width="512" height="512" viewBox="0 0 512 512" fill="none" xmlns="http://www.w3.org/2000/svg">
<g clip-path="url(#clip0)">
<path d="M469.333 85.333H249.75L210.208 45.791C208.208 43.791 205.5 42.666 202.666 42.666H42.666C19.135 42.667 0 61.802 0 85.333V426.666C0 450.197 19.135 469.333 42.667 469.333H469.334C492.865 469.333 512.001 450.198 512.001 426.666V128C512 104.469 492.865 85.333 469.333 85.333ZM421.771 286.302L272.438 382.302C270.688 383.437 268.678 384 266.667 384C264.907 384 263.157 383.562 261.552 382.698C258.135 380.823 256 377.24 256 373.333V181.333C256 177.427 258.135 173.843 261.552 171.968C264.969 170.103 269.135 170.239 272.437 172.364L421.77 268.364C424.822 270.322 426.666 273.708 426.666 277.333C426.666 280.958 424.823 284.344 421.771 286.302Z" fill="#1978DC"/>
</g>
<defs>
<clipPath id="clip0">
<rect width="512" height="512" fill="white"/>
</clipPath>
</defs>
</svg>
