<svg width="512" height="512" viewBox="0 0 512 512" fill="none" xmlns="http://www.w3.org/2000/svg">
<path d="M458.667 298.667C464.563 298.667 469.334 293.896 469.334 288V106.667C469.334 83.136 450.188 64 426.667 64H228.417L188.875 24.458C186.875 22.458 184.167 21.333 181.333 21.333H42.667C19.146 21.333 0 40.469 0 64V362.667C0 386.198 19.146 405.334 42.667 405.334H266.667C272.563 405.334 277.334 400.563 277.334 394.667V352C277.334 322.594 301.251 298.667 330.667 298.667H458.667Z" fill="#1978DC"/>
<path d="M305.375 333C301.917 337.594 302.719 344.094 307.188 347.708L398.771 421.823C400.729 423.406 403.104 424.198 405.479 424.198C407.823 424.198 410.177 423.427 412.114 421.885L504.083 348.77C508.427 345.312 509.396 339.114 506.323 334.499C500.26 325.417 490.427 320 480 320H330.667C320.813 320 311.594 324.74 305.375 333Z" fill="#484B5C"/>
<path d="M505.969 382.188C502.323 380.407 497.906 380.875 494.698 383.438L417.979 444.282C410.302 449.157 401.187 449.813 391.739 443.584L316.041 382.313C312.843 379.73 308.426 379.188 304.739 380.98C301.031 382.751 298.666 386.49 298.666 390.605V458.668C298.666 476.314 313.02 490.668 330.666 490.668H480C497.646 490.668 512 476.314 512 458.668V391.793C512 387.698 509.656 383.969 505.969 382.188Z" fill="#484B5C"/>
</svg>
