<svg width="512" height="512" viewBox="0 0 512 512" fill="none" xmlns="http://www.w3.org/2000/svg">
<path d="M394.667 256C329.979 256 277.334 308.635 277.334 373.333C277.334 438.031 329.98 490.666 394.667 490.666C415.292 490.666 435.584 485.239 453.334 474.958C458.438 472.01 460.188 465.489 457.23 460.385C454.272 455.281 447.688 453.531 442.667 456.5C428.146 464.896 411.542 469.333 394.667 469.333C341.729 469.333 298.667 426.27 298.667 373.333C298.667 320.395 341.73 277.333 394.667 277.333C447.604 277.333 490.667 320.396 490.667 373.333V384C490.667 395.76 481.104 405.333 469.334 405.333C457.563 405.333 448 395.76 448 384V341.333C448 335.437 443.229 330.666 437.333 330.666C434.464 330.666 431.888 331.826 429.972 333.665C420.545 325.265 408.261 320 394.666 320C365.249 320 341.333 343.927 341.333 373.333C341.333 402.739 365.25 426.666 394.666 426.666C410.568 426.666 424.7 419.534 434.479 408.464C442.208 419.441 454.923 426.666 469.333 426.666C492.854 426.667 512 407.531 512 384V373.333C512 308.635 459.354 256 394.667 256ZM394.667 405.333C377.021 405.333 362.667 390.979 362.667 373.333C362.667 355.687 377.021 341.333 394.667 341.333C412.313 341.333 426.667 355.687 426.667 373.333C426.667 390.979 412.313 405.333 394.667 405.333Z" fill="#484B5C"/>
<path d="M256 373.333C256 296.875 318.208 234.666 394.667 234.666C415.23 234.666 435.219 239.218 454.084 248.197C457.407 249.76 461.282 249.53 464.365 247.582C467.459 245.624 469.334 242.217 469.334 238.561V106.667C469.334 83.136 450.199 64 426.667 64H228.417L188.875 24.458C186.875 22.458 184.167 21.333 181.333 21.333H42.667C19.135 21.333 0 40.469 0 64V362.667C0 386.198 19.135 405.334 42.667 405.334H247.032C250.126 405.334 253.063 403.99 255.095 401.657C257.116 399.324 258.033 396.219 257.595 393.157C256.51 385.573 256 379.271 256 373.333Z" fill="#1978DC"/>
</svg>
