<svg width="512" height="512" viewBox="0 0 512 512" fill="none" xmlns="http://www.w3.org/2000/svg">
<path d="M416 234.667C429.167 234.667 442.083 237.407 454.375 242.802C457.667 244.25 461.458 243.937 464.5 241.969C467.521 240 469.333 236.646 469.333 233.042V106.667C469.333 83.136 450.187 64 426.666 64H228.416L188.874 24.458C186.874 22.458 184.166 21.333 181.332 21.333H42.667C19.146 21.333 0 40.469 0 64V362.667C0 386.198 19.146 405.334 42.667 405.334H288C293.896 405.334 298.667 400.563 298.667 394.667V362.667C298.667 349.011 305.396 336.052 316.667 328.011C319.146 326.24 320.75 323.49 321.084 320.469C326.354 271.552 367.146 234.667 416 234.667Z" fill="#1978DC"/>
<path d="M490.667 341.333V330.666C490.667 289.5 457.167 256 416 256C374.833 256 341.333 289.5 341.333 330.667V341.334C329.573 341.334 320 350.907 320 362.667V469.334C320 481.094 329.573 490.667 341.333 490.667H490.666C502.426 490.667 511.999 481.094 511.999 469.334V362.667C512 350.906 502.427 341.333 490.667 341.333ZM426.667 423.387V437.334C426.667 443.23 421.896 448.001 416 448.001C410.104 448.001 405.333 443.23 405.333 437.334V423.387C399.075 419.663 394.666 413.125 394.666 405.334C394.666 393.574 404.239 384.001 415.999 384.001C427.759 384.001 437.332 393.574 437.332 405.334C437.333 413.125 432.924 419.663 426.667 423.387ZM448 341.333H384V330.666C384 313.02 398.354 298.666 416 298.666C433.646 298.666 448 313.02 448 330.666V341.333Z" fill="#484B5C"/>
</svg>
