<svg width="512" height="512" viewBox="0 0 512 512" fill="none" xmlns="http://www.w3.org/2000/svg">
<g clip-path="url(#clip0)">
<path d="M458.667 256C464.563 256 469.334 251.229 469.334 245.333V106.667C469.334 83.136 450.188 64 426.667 64H228.417L188.875 24.458C186.875 22.458 184.167 21.333 181.333 21.333H42.667C19.146 21.333 0 40.469 0 64V362.667C0 386.198 19.146 405.334 42.667 405.334H224C229.896 405.334 234.667 400.563 234.667 394.667V288C234.667 270.354 249.021 256 266.667 256H458.667Z" fill="#1978DC"/>
<path d="M362.667 362.666C374.449 362.666 384 353.115 384 341.333C384 329.551 374.449 320 362.667 320C350.885 320 341.334 329.551 341.334 341.333C341.334 353.115 350.885 362.666 362.667 362.666Z" fill="#484B5C"/>
<path d="M501.333 277.333H266.667C260.771 277.333 256 282.104 256 288V480C256 485.896 260.771 490.667 266.667 490.667H501.334C507.23 490.667 512.001 485.896 512.001 480V288C512 282.104 507.229 277.333 501.333 277.333ZM490.667 400.917L434.209 344.459C430.042 340.292 423.292 340.292 419.126 344.459L385.293 378.292C381.126 382.459 381.126 389.209 385.293 393.375L395.96 404.042C397.97 406.063 399.085 408.74 399.085 411.584C399.085 414.428 397.97 417.105 395.96 419.126C391.918 423.147 384.918 423.147 380.877 419.126L338.21 376.459C334.043 372.292 327.293 372.292 323.127 376.459L277.335 422.251V298.667H490.668V400.917H490.667Z" fill="#484B5C"/>
</g>
<defs>
<clipPath id="clip0">
<rect width="512" height="512" fill="white"/>
</clipPath>
</defs>
</svg>
