<svg width="512" height="512" viewBox="0 0 512 512" fill="none" xmlns="http://www.w3.org/2000/svg">
<g clip-path="url(#clip0)">
<path d="M469.333 85.333H249.75L210.208 45.791C208.208 43.791 205.5 42.666 202.666 42.666H42.666C19.146 42.667 0 61.802 0 85.333C0 88.541 1.438 91.583 3.938 93.604L462.605 466.937C464.501 468.489 466.876 469.333 469.334 469.333C492.855 469.333 512.001 450.198 512.001 426.666V128C512 104.469 492.854 85.333 469.333 85.333Z" fill="#1978DC"/>
<path d="M42.667 448C30.896 448 21.334 438.427 21.334 426.667C21.334 420.771 16.563 416 10.667 416C4.771 416 0 420.771 0 426.667C0 450.198 19.146 469.334 42.667 469.334C48.563 469.334 53.334 464.563 53.334 458.667C53.334 452.771 48.563 448 42.667 448Z" fill="#484B5C"/>
<path d="M10.667 170.667C16.563 170.667 21.334 165.896 21.334 160V138.667C21.334 132.771 16.563 128 10.667 128C4.771 128 0 132.771 0 138.667V160C0 165.896 4.771 170.667 10.667 170.667Z" fill="#484B5C"/>
<path d="M10.667 290.667C16.563 290.667 21.334 285.896 21.334 280V232C21.334 226.104 16.563 221.333 10.667 221.333C4.771 221.333 0 226.104 0 232V280C0 285.896 4.771 290.667 10.667 290.667Z" fill="#484B5C"/>
<path d="M10.667 384C16.563 384 21.334 379.229 21.334 373.333V352C21.334 346.104 16.563 341.333 10.667 341.333C4.771 341.333 0 346.104 0 352V373.333C0 379.229 4.771 384 10.667 384Z" fill="#484B5C"/>
<path d="M117.333 448H96C90.104 448 85.333 452.771 85.333 458.667C85.333 464.563 90.104 469.333 96 469.333H117.333C123.229 469.333 128 464.562 128 458.666C128 452.77 123.229 448 117.333 448Z" fill="#484B5C"/>
<path d="M224 448H181.333C175.437 448 170.666 452.771 170.666 458.667C170.666 464.563 175.437 469.334 181.333 469.334H224C229.896 469.334 234.667 464.563 234.667 458.667C234.667 452.771 229.896 448 224 448Z" fill="#484B5C"/>
<path d="M330.667 448H288C282.104 448 277.333 452.771 277.333 458.667C277.333 464.563 282.104 469.334 288 469.334H330.667C336.563 469.334 341.334 464.563 341.334 458.667C341.334 452.771 336.563 448 330.667 448Z" fill="#484B5C"/>
<path d="M416 448H394.667C388.771 448 384 452.771 384 458.667C384 464.563 388.771 469.334 394.667 469.334H416C421.896 469.334 426.667 464.563 426.667 458.667C426.667 452.771 421.896 448 416 448Z" fill="#484B5C"/>
</g>
<defs>
<clipPath id="clip0">
<rect width="512" height="512" fill="white"/>
</clipPath>
</defs>
</svg>
