<svg width="512" height="512" viewBox="0 0 512 512" fill="none" xmlns="http://www.w3.org/2000/svg">
<path d="M42.667 448C30.896 448 21.334 438.427 21.334 426.667C21.334 420.771 16.563 416 10.667 416C4.771 416 0 420.771 0 426.667C0 450.198 19.146 469.334 42.667 469.334C48.563 469.334 53.334 464.563 53.334 458.667C53.334 452.771 48.563 448 42.667 448Z" fill="#484B5C"/>
<path d="M501.333 416C495.437 416 490.666 420.771 490.666 426.667C490.666 438.427 481.103 448 469.333 448C463.437 448 458.666 452.771 458.666 458.667C458.666 464.563 463.437 469.334 469.333 469.334C492.854 469.334 512 450.199 512 426.667C512 420.771 507.229 416 501.333 416Z" fill="#484B5C"/>
<path d="M469.333 106.667C481.104 106.667 490.666 116.24 490.666 128C490.666 133.896 495.437 138.667 501.333 138.667C507.229 138.667 512 133.896 512 128C512 104.469 492.854 85.333 469.333 85.333C463.437 85.333 458.666 90.104 458.666 96C458.666 101.896 463.438 106.667 469.333 106.667Z" fill="#484B5C"/>
<path d="M42.667 42.667C19.146 42.667 0 61.802 0 85.333C0 91.229 4.771 96 10.667 96C16.563 96 21.334 91.229 21.334 85.333C21.333 73.573 30.896 64 42.667 64C48.563 64 53.334 59.229 53.334 53.333C53.333 47.438 48.563 42.667 42.667 42.667Z" fill="#484B5C"/>
<path d="M117.333 42.667H96C90.104 42.667 85.333 47.438 85.333 53.334C85.333 59.229 90.104 64 96 64H117.333C123.229 64 128 59.229 128 53.333C128 47.438 123.229 42.667 117.333 42.667Z" fill="#484B5C"/>
<path d="M326.563 106.667C332.459 106.667 337.23 101.896 337.23 96C337.23 90.104 332.459 85.333 326.563 85.333H281.188C275.292 85.333 270.521 90.104 270.521 96C270.521 101.896 275.292 106.667 281.188 106.667H326.563Z" fill="#484B5C"/>
<path d="M185.396 64H198.25L215 80.75C217.083 82.833 219.813 83.875 222.542 83.875C225.271 83.875 228 82.833 230.084 80.75C234.251 76.583 234.251 69.833 230.084 65.667L210.209 45.792C208.209 43.792 205.501 42.667 202.667 42.667H185.396C179.5 42.667 174.729 47.438 174.729 53.334C174.729 59.229 179.5 64 185.396 64Z" fill="#484B5C"/>
<path d="M394.646 106.667H415.979C421.875 106.667 426.646 101.896 426.646 96C426.646 90.104 421.875 85.333 415.979 85.333H394.646C388.75 85.333 383.979 90.104 383.979 96C383.979 101.896 388.75 106.667 394.646 106.667Z" fill="#484B5C"/>
<path d="M10.667 170.667C16.563 170.667 21.334 165.896 21.334 160V138.667C21.334 132.771 16.563 128 10.667 128C4.771 128 0 132.771 0 138.667V160C0 165.896 4.771 170.667 10.667 170.667Z" fill="#484B5C"/>
<path d="M10.667 290.667C16.563 290.667 21.334 285.896 21.334 280V232C21.334 226.104 16.563 221.333 10.667 221.333C4.771 221.333 0 226.104 0 232V280C0 285.896 4.771 290.667 10.667 290.667Z" fill="#484B5C"/>
<path d="M10.667 384C16.563 384 21.334 379.229 21.334 373.333V352C21.334 346.104 16.563 341.333 10.667 341.333C4.771 341.333 0 346.104 0 352V373.333C0 379.229 4.771 384 10.667 384Z" fill="#484B5C"/>
<path d="M501.333 170.667C495.437 170.667 490.666 175.438 490.666 181.334V202.667C490.666 208.563 495.437 213.334 501.333 213.334C507.229 213.334 512 208.563 512 202.667V181.334C512 175.438 507.229 170.667 501.333 170.667Z" fill="#484B5C"/>
<path d="M501.333 248C495.437 248 490.666 252.771 490.666 258.667V296C490.666 301.896 495.437 306.667 501.333 306.667C507.229 306.667 512 301.896 512 296V258.667C512 252.771 507.229 248 501.333 248Z" fill="#484B5C"/>
<path d="M501.333 341.333C495.437 341.333 490.666 346.104 490.666 352V373.333C490.666 379.229 495.437 384 501.333 384C507.229 384 512 379.229 512 373.333V352C512 346.104 507.229 341.333 501.333 341.333Z" fill="#484B5C"/>
<path d="M117.333 448H96C90.104 448 85.333 452.771 85.333 458.667C85.333 464.563 90.104 469.333 96 469.333H117.333C123.229 469.333 128 464.562 128 458.666C128 452.77 123.229 448 117.333 448Z" fill="#484B5C"/>
<path d="M330.667 448H288C282.104 448 277.333 452.771 277.333 458.667C277.333 464.563 282.104 469.334 288 469.334H330.667C336.563 469.334 341.334 464.563 341.334 458.667C341.334 452.771 336.563 448 330.667 448Z" fill="#484B5C"/>
<path d="M224 448H181.333C175.437 448 170.666 452.771 170.666 458.667C170.666 464.563 175.437 469.334 181.333 469.334H224C229.896 469.334 234.667 464.563 234.667 458.667C234.667 452.771 229.896 448 224 448Z" fill="#484B5C"/>
<path d="M416 448H394.667C388.771 448 384 452.771 384 458.667C384 464.563 388.771 469.334 394.667 469.334H416C421.896 469.334 426.667 464.563 426.667 458.667C426.667 452.771 421.896 448 416 448Z" fill="#484B5C"/>
</svg>
