<svg width="512" height="512" viewBox="0 0 512 512" fill="none" xmlns="http://www.w3.org/2000/svg">
<path d="M469.333 85.333H271.083L231.541 45.791C229.541 43.791 226.833 42.666 223.999 42.666H85.333C61.802 42.666 42.666 61.801 42.666 85.333V384C42.666 407.531 61.801 426.667 85.333 426.667H469.333C492.865 426.667 512 407.531 512 384V128C512 104.469 492.865 85.333 469.333 85.333Z" fill="#1978DC"/>
<path d="M21.333 405.333V91.2671C8.642 98.6671 0 112.275 0 128V426.667C0 450.198 19.135 469.334 42.667 469.334H426.667C442.392 469.334 456 460.692 463.4 448.001H64C40.469 448 21.333 428.865 21.333 405.333Z" fill="#484B5C"/>
</svg>
