<svg width="512" height="512" viewBox="0 0 512 512" fill="none" xmlns="http://www.w3.org/2000/svg">
<path d="M469.333 85.333H249.75L210.208 45.791C208.208 43.791 205.5 42.666 202.666 42.666H42.666C19.146 42.667 0 61.802 0 85.333V405.333C0 428.865 19.146 448 42.667 448H106.667V458.667C106.667 464.563 111.438 469.334 117.334 469.334H181.334C187.23 469.334 192.001 464.563 192.001 458.667V448H320.001V458.667C320.001 464.563 324.772 469.334 330.668 469.334H394.668C400.564 469.334 405.335 464.563 405.335 458.667V448H469.335C492.854 448 512 428.865 512 405.333V128C512 104.469 492.854 85.333 469.333 85.333ZM384 448H341.333V330.667C341.333 324.771 336.562 320 330.666 320H181.333C175.437 320 170.666 324.771 170.666 330.667V448H128V298.667C128 286.907 137.563 277.334 149.333 277.334H362.666C374.437 277.334 383.999 286.907 383.999 298.667V448H384Z" fill="#1978DC"/>
</svg>
