<svg width="512" height="512" viewBox="0 0 512 512" fill="none" xmlns="http://www.w3.org/2000/svg">
<g clip-path="url(#clip0)">
<path d="M469.333 85.333H249.75L210.208 45.791C208.208 43.791 205.5 42.666 202.666 42.666H42.666C19.146 42.667 0 61.802 0 85.333V426.666C0 450.197 19.146 469.333 42.667 469.333H469.334C492.855 469.333 512.001 450.198 512.001 426.666V128C512 104.469 492.854 85.333 469.333 85.333ZM425.083 261.594L339.75 400.26C337.771 403.468 334.312 405.333 330.667 405.333C329.709 405.333 328.729 405.198 327.771 404.927C323.167 403.635 320 399.437 320 394.667V309.334H266.667C262.813 309.334 259.25 307.24 257.354 303.876C255.479 300.501 255.562 296.366 257.583 293.074L342.916 154.407C345.416 150.355 350.249 148.438 354.895 149.74C359.499 151.032 362.666 155.23 362.666 160V245.333H416C419.854 245.333 423.417 247.427 425.313 250.791C427.188 254.167 427.104 258.302 425.083 261.594Z" fill="#1978DC"/>
</g>
<defs>
<clipPath id="clip0">
<rect width="512" height="512" fill="white"/>
</clipPath>
</defs>
</svg>
