<svg width="512" height="512" viewBox="0 0 512 512" fill="none" xmlns="http://www.w3.org/2000/svg">
<g clip-path="url(#clip0)">
<path d="M278.115 244.749L320.003 272.241L361.891 244.749L320.003 213.328L278.115 244.749Z" fill="#1978DC"/>
<path d="M469.333 85.333H249.75L210.208 45.791C208.208 43.791 205.5 42.666 202.666 42.666H42.666C19.146 42.667 0 61.802 0 85.333V426.666C0 450.197 19.146 469.333 42.667 469.333H469.334C492.855 469.333 512.001 450.198 512.001 426.666V128C512 104.469 492.854 85.333 469.333 85.333ZM405.336 362.667C405.336 366.938 402.794 370.792 398.878 372.469L324.211 404.469C322.857 405.042 321.44 405.334 320.003 405.334C318.566 405.334 317.149 405.042 315.795 404.469L241.128 372.469C237.211 370.792 234.67 366.938 234.67 362.667V356.927C234.67 353.114 236.712 349.594 240.003 347.687C243.336 345.791 247.399 345.802 250.691 347.697C260.962 353.655 274.316 353.291 284.233 346.749L314.15 327.114C317.692 324.781 322.317 324.781 325.858 327.114L355.775 346.749C365.692 353.291 379.067 353.655 389.317 347.697C392.63 345.791 396.692 345.78 400.005 347.687C403.297 349.593 405.338 353.114 405.338 356.927V362.667H405.336ZM443.19 273.75C446.273 275.771 448.086 279.25 448.003 282.948C447.899 286.636 445.899 290.021 442.711 291.886L378.711 329.219C377.044 330.188 375.19 330.667 373.336 330.667C371.294 330.667 369.253 330.084 367.482 328.917L320.003 297.758L272.524 328.917C270.753 330.084 268.711 330.667 266.67 330.667C264.816 330.667 262.962 330.188 261.295 329.219L197.295 291.886C194.107 290.021 192.107 286.636 192.003 282.948C191.92 279.25 193.732 275.771 196.816 273.75L241.014 244.749L196.274 211.198C193.503 209.125 191.92 205.833 192.003 202.375C192.107 198.906 193.878 195.708 196.753 193.792L260.753 151.125C264.503 148.625 269.441 148.76 273.066 151.469L320.004 186.672L366.942 151.469C370.588 148.761 375.505 148.636 379.255 151.125L443.255 193.792C446.13 195.709 447.901 198.907 448.005 202.375C448.088 205.833 446.505 209.125 443.734 211.198L398.994 244.749L443.19 273.75Z" fill="#1978DC"/>
</g>
<defs>
<clipPath id="clip0">
<rect width="512" height="512" fill="white"/>
</clipPath>
</defs>
</svg>
