<svg width="512" height="512" viewBox="0 0 512 512" fill="none" xmlns="http://www.w3.org/2000/svg">
<g clip-path="url(#clip0)">
<path d="M469.333 85.333H249.75L210.208 45.791C208.208 43.791 205.5 42.666 202.666 42.666H42.666C19.135 42.667 0 61.802 0 85.333V426.666C0 450.197 19.135 469.333 42.667 469.333H469.334C492.865 469.333 512.001 450.198 512.001 426.666V128C512 104.469 492.865 85.333 469.333 85.333ZM267.979 176.198C269.854 172.792 273.437 170.667 277.333 170.667H362.666C366.312 170.667 369.708 172.532 371.666 175.605L419.187 250.272C421.281 253.564 421.406 257.72 419.541 261.137C417.666 264.543 414.083 266.668 410.187 266.668H324.854C321.208 266.668 317.812 264.803 315.854 261.73L268.333 187.063C266.24 183.771 266.115 179.615 267.979 176.198ZM245.333 384C242.406 383.917 237.968 381.958 236.073 378.625L193.406 303.958C191.437 300.52 191.541 296.281 193.666 292.937L243.041 215.343C246.958 209.197 257.124 209.197 261.041 215.343L297.854 273.176C299.271 275.395 300.979 277.457 302.948 279.311C306.573 282.707 307.365 288.165 304.865 292.457L254.552 378.707C252.635 381.99 249.125 384 245.333 384ZM446.594 303.958L403.927 378.625C402.031 381.948 398.489 384 394.667 384H294.729C290.906 384 287.385 381.958 285.479 378.646C283.573 375.334 283.594 371.261 285.521 367.958L329.084 293.291C330.99 290.01 334.501 287.999 338.292 287.999H437.334C441.136 287.999 444.647 290.02 446.563 293.312C448.469 296.604 448.479 300.656 446.594 303.958Z" fill="#1978DC"/>
</g>
<defs>
<clipPath id="clip0">
<rect width="512" height="512" fill="white"/>
</clipPath>
</defs>
</svg>
