<svg width="512" height="512" viewBox="0 0 512 512" fill="none" xmlns="http://www.w3.org/2000/svg">
<path d="M448 234.667C450.344 234.667 452.875 235.042 455.969 235.855C459.188 236.657 462.563 235.97 465.188 233.97C467.803 231.96 469.334 228.835 469.334 225.532V106.667C469.334 83.136 450.199 64 426.667 64H228.417L188.875 24.458C186.875 22.458 184.167 21.333 181.333 21.333H42.667C19.135 21.333 0 40.469 0 64V362.667C0 386.198 19.135 405.334 42.667 405.334H288C293.896 405.334 298.667 400.563 298.667 394.667V280.958C298.667 255.437 319.438 234.666 344.959 234.666H448V234.667Z" fill="#1978DC"/>
<path d="M508.875 312.458L455.542 259.125C453.542 257.125 450.834 256 448 256H344.958C331.188 256 320 267.198 320 280.958V465.708C320 479.468 331.188 490.666 344.958 490.666H487.041C500.812 490.666 511.999 479.468 511.999 465.708V320C512 317.167 510.875 314.458 508.875 312.458ZM451.625 320C449.625 320 448 318.375 448 316.375V281.75L486.25 320H451.625Z" fill="#484B5C"/>
</svg>
