<svg width="512" height="512" viewBox="0 0 512 512" fill="none" xmlns="http://www.w3.org/2000/svg">
<path d="M469.333 213.333H106.667C86.8862 213.333 70.0002 226.625 65.2922 245.76C65.2712 245.833 65.2402 245.916 65.2192 245.989L2.77122 456.844C2.09422 459.146 2.20822 461.615 3.10422 463.844C9.64622 480.136 25.1672 490.667 42.6672 490.667H405.334C424.438 490.667 441.053 478.021 446.272 459.719C446.366 459.49 446.449 459.261 446.522 459.021L509.897 269.188C510.105 268.584 510.241 267.959 510.335 267.334C511.448 263.385 512 259.667 512 256C512 232.469 492.865 213.333 469.333 213.333Z" fill="#1978DC"/>
<path d="M9.135 328.063C9.656 328.146 10.166 328.178 10.677 328.178C15.333 328.178 19.542 325.126 20.896 320.543L44.771 239.908C49.49 221.606 62.052 206.45 79.229 198.335C82.958 196.575 85.333 192.814 85.333 188.689V117.335C85.333 111.439 80.562 106.668 74.666 106.668H42.666C19.135 106.667 0 125.802 0 149.333V317.51C0 322.813 3.896 327.302 9.135 328.063Z" fill="#1978DC"/>
<path d="M117.333 192H394.666C400.562 192 405.333 187.229 405.333 181.333V117.333C405.333 114.379 404.132 111.709 402.195 109.778L316.888 24.471C314.957 22.533 312.288 21.333 309.333 21.333H149.333C125.802 21.333 106.666 40.468 106.666 64V181.333C106.667 187.229 111.438 192 117.333 192ZM320 57.75L368.917 106.667H341.334C329.574 106.667 320.001 97.094 320.001 85.334V57.75H320Z" fill="#484B5C"/>
</svg>
