<svg width="512" height="512" viewBox="0 0 512 512" fill="none" xmlns="http://www.w3.org/2000/svg">
<path d="M477.792 387.625C469.542 348.615 434.959 320 394.667 320C364.292 320 336.146 336.521 320.979 362.677C320.666 362.667 320.333 362.667 320 362.667C284.708 362.667 256 391.375 256 426.667C256 461.959 284.708 490.667 320 490.667H458.667C488.084 490.667 512 466.74 512 437.334C512 414.948 498.25 395.427 477.792 387.625Z" fill="#484B5C"/>
<path d="M305.25 342.854C307.792 342.396 310.104 341.031 311.729 339.01C332.25 313.375 362.479 298.666 394.667 298.666C415.146 298.666 435.23 304.833 452.75 316.51C456.042 318.687 460.229 318.885 463.708 317.041C467.166 315.187 469.333 311.572 469.333 307.635V106.667C469.333 83.136 450.187 64 426.666 64H228.416L188.874 24.458C186.874 22.458 184.166 21.333 181.332 21.333H42.667C19.146 21.333 0 40.469 0 64V362.667C0 386.198 19.146 405.334 42.667 405.334H229.646C234.146 405.334 238.188 402.501 239.688 398.251C250 369.375 275.104 348.146 305.25 342.854Z" fill="#1978DC"/>
</svg>
