<svg width="512" height="512" viewBox="0 0 512 512" fill="none" xmlns="http://www.w3.org/2000/svg">
<path d="M256 373.333C256 296.875 318.208 234.666 394.667 234.666C415.23 234.666 435.219 239.218 454.084 248.197C457.407 249.76 461.282 249.53 464.365 247.582C467.459 245.624 469.334 242.217 469.334 238.561V106.667C469.334 83.136 450.199 64 426.667 64H228.417L188.875 24.458C186.875 22.458 184.167 21.333 181.333 21.333H42.667C19.135 21.333 0 40.469 0 64V362.667C0 386.198 19.135 405.334 42.667 405.334H247.032C250.126 405.334 253.063 403.99 255.095 401.657C257.116 399.324 258.033 396.219 257.595 393.157C256.51 385.573 256 379.271 256 373.333Z" fill="#1978DC"/>
<path d="M394.667 256C329.969 256 277.334 308.635 277.334 373.333C277.334 438.031 329.969 490.666 394.667 490.666C459.365 490.666 512 438.031 512 373.333C512 308.635 459.365 256 394.667 256ZM455.542 348.875L380.875 423.542C378.792 425.625 376.062 426.667 373.333 426.667C370.604 426.667 367.875 425.625 365.791 423.542L333.791 391.542C329.624 387.375 329.624 380.625 333.791 376.459C337.958 372.292 344.708 372.292 348.874 376.459L373.332 400.917L440.457 333.792C444.624 329.625 451.374 329.625 455.54 333.792C459.708 337.958 459.708 344.708 455.542 348.875Z" fill="#484B5C"/>
</svg>
