<svg width="512" height="512" viewBox="0 0 512 512" fill="none" xmlns="http://www.w3.org/2000/svg">
<path d="M480 277.333H330.667C313.021 277.333 298.667 291.687 298.667 309.333V480C298.667 484.313 301.261 488.208 305.25 489.854C306.573 490.406 307.958 490.667 309.333 490.667C312.104 490.667 314.833 489.584 316.875 487.542L356.417 448H480C497.646 448 512 433.646 512 416V309.333C512 291.688 497.646 277.333 480 277.333Z" fill="#484B5C"/>
<path d="M458.667 255.667C464.563 255.667 469.334 250.896 469.334 245V106.667C469.334 83.136 450.199 64 426.667 64H228.417L188.875 24.458C186.875 22.458 184.167 21.333 181.333 21.333H42.667C19.135 21.333 0 40.469 0 64V362.667C0 386.198 19.135 405.334 42.667 405.334H266.334C272.23 405.334 277.001 400.563 277.001 394.667V309C277.001 279.594 300.928 255.667 330.334 255.667H458.667Z" fill="#1978DC"/>
</svg>
