<svg width="512" height="512" viewBox="0 0 512 512" fill="none" xmlns="http://www.w3.org/2000/svg">
<path d="M511.458 391.833C508.541 356.708 491.187 335.125 475.875 316.073C462.937 299.99 451.771 286.094 451.771 266.667C451.771 262.74 449.604 259.136 446.167 257.271C442.688 255.396 438.479 255.615 435.229 257.771C411.937 273.146 392.479 299.198 385.625 324.146C381.917 337.771 380.75 352.531 380.396 364.281C369.333 357.208 366.458 340.125 366.313 339.218C365.792 335.947 363.771 333.072 360.855 331.499C357.917 329.926 354.459 329.739 351.417 331.134C350.188 331.676 321.688 345.04 320.125 395.957C320 397.688 320 399.427 320 401.156C320 450.51 363.063 490.666 416 490.666C468.937 490.666 512 450.51 512 401.156C512 398.552 511.813 396.125 511.458 391.833Z" fill="#484B5C"/>
<path d="M342.666 311.667C347.979 309.271 353.895 308.438 359.625 309.094C364.208 309.667 368.771 307.084 370.646 302.771C381.521 277.844 400.771 254.958 423.459 239.969C432.188 234.209 442.813 232.584 454.251 237.792C457.564 239.282 461.397 238.99 464.439 237.042C467.502 235.073 469.335 231.698 469.335 228.073V106.667C469.335 83.136 450.189 64 426.668 64H228.418L188.876 24.458C186.876 22.458 184.168 21.333 181.334 21.333H42.667C19.146 21.333 0 40.469 0 64V362.667C0 386.198 19.146 405.334 42.667 405.334H288.188C294.021 405.334 298.771 400.021 298.855 394.209C298.876 394.146 298.876 394.094 298.876 394.032C300.708 333.542 335.688 314.802 342.666 311.667Z" fill="#1978DC"/>
</svg>
