<svg width="512" height="512" viewBox="0 0 512 512" fill="none" xmlns="http://www.w3.org/2000/svg">
<g clip-path="url(#clip0)">
<path d="M469.333 85.333H249.75L210.208 45.791C208.208 43.791 205.5 42.666 202.666 42.666H42.666C19.146 42.667 0 61.802 0 85.333V426.666C0 450.197 19.146 469.333 42.667 469.333H469.334C492.855 469.333 512.001 450.198 512.001 426.666V128C512 104.469 492.854 85.333 469.333 85.333ZM405.333 245.333C405.333 249.646 402.729 253.541 398.75 255.187C397.437 255.739 396.042 256 394.667 256C391.896 256 389.167 254.917 387.125 252.875L352 217.75L316.875 252.875C313.812 255.938 309.229 256.854 305.25 255.188C301.271 253.542 298.667 249.646 298.667 245.334V106.667H405.334V245.333H405.333Z" fill="#1978DC"/>
</g>
<defs>
<clipPath id="clip0">
<rect width="512" height="512" fill="white"/>
</clipPath>
</defs>
</svg>
