<svg width="512" height="512" viewBox="0 0 512 512" fill="none" xmlns="http://www.w3.org/2000/svg">
<path d="M256 373.333C256 296.875 318.208 234.666 394.667 234.666C415.23 234.666 435.219 239.218 454.084 248.197C457.407 249.76 461.282 249.53 464.365 247.582C467.459 245.624 469.334 242.217 469.334 238.561V106.667C469.334 83.136 450.199 64 426.667 64H228.417L188.875 24.458C186.875 22.458 184.167 21.333 181.333 21.333H42.667C19.135 21.333 0 40.469 0 64V362.667C0 386.198 19.135 405.334 42.667 405.334H247.032C250.126 405.334 253.063 403.99 255.095 401.657C257.116 399.324 258.033 396.219 257.595 393.157C256.51 385.573 256 379.271 256 373.333Z" fill="#1978DC"/>
<path d="M394.667 256C329.969 256 277.334 308.635 277.334 373.333C277.334 438.031 329.969 490.666 394.667 490.666C459.365 490.666 512 438.031 512 373.333C512 308.635 459.365 256 394.667 256ZM394.667 448C388.776 448 384 443.224 384 437.333C384 431.441 388.776 426.666 394.667 426.666C400.558 426.666 405.334 431.441 405.334 437.333C405.333 443.224 400.557 448 394.667 448ZM405.333 394.667C405.333 400.563 400.562 405.334 394.666 405.334C388.77 405.334 384 400.563 384 394.667V309.334C384 303.438 388.771 298.667 394.667 298.667C400.563 298.667 405.334 303.438 405.334 309.334V394.667H405.333Z" fill="#484B5C"/>
</svg>
