<svg width="512" height="512" viewBox="0 0 512 512" fill="none" xmlns="http://www.w3.org/2000/svg">
<path d="M458.667 384H352C334.354 384 320 398.354 320 416C320 433.646 334.354 448 352 448H426.667C432.563 448 437.334 443.229 437.334 437.333C437.334 431.437 432.563 426.666 426.667 426.666H352C346.115 426.666 341.333 421.885 341.333 415.999C341.333 410.114 346.114 405.332 352 405.332H458.667C476.313 405.332 490.667 419.686 490.667 437.332C490.667 454.978 476.313 469.332 458.667 469.332H352C322.594 469.332 298.667 445.405 298.667 415.999C298.667 386.593 322.594 362.666 352 362.666H469.333C475.229 362.666 480 357.895 480 351.999C480 346.103 475.229 341.332 469.333 341.332H352C310.833 341.332 277.333 374.832 277.333 415.999C277.333 457.166 310.833 490.666 352 490.666H458.667C488.073 490.666 512 466.739 512 437.333C512 407.927 488.073 384 458.667 384Z" fill="#484B5C"/>
<path d="M352 320H458.667C464.563 320 469.334 315.229 469.334 309.333V106.667C469.334 83.136 450.199 64 426.667 64H228.417L188.875 24.458C186.875 22.458 184.167 21.333 181.333 21.333H42.667C19.135 21.333 0 40.469 0 64V362.667C0 386.198 19.135 405.334 42.667 405.334H247.49C252.563 405.334 256.928 401.761 257.938 396.803C267.021 352.302 306.573 320 352 320Z" fill="#1978DC"/>
</svg>
