<svg width="48" height="48" viewBox="0 0 48 48" fill="none" xmlns="http://www.w3.org/2000/svg">
<circle cx="24" cy="24" r="24" fill="white"/>
<path d="M32.3584 16.5792H28.4209V15.0792C28.4209 14.9761 28.3365 14.8917 28.2334 14.8917H26.9209C26.8178 14.8917 26.7334 14.9761 26.7334 15.0792V16.5792H20.7334V15.0792C20.7334 14.9761 20.649 14.8917 20.5459 14.8917H19.2334C19.1303 14.8917 19.0459 14.9761 19.0459 15.0792V16.5792H15.1084C14.6936 16.5792 14.3584 16.9144 14.3584 17.3292V32.8917C14.3584 33.3066 14.6936 33.6417 15.1084 33.6417H32.3584C32.7732 33.6417 33.1084 33.3066 33.1084 32.8917V17.3292C33.1084 16.9144 32.7732 16.5792 32.3584 16.5792ZM26.9279 22.2698L24.8725 26.0456H25.9436C26.0725 26.0456 26.1779 26.1511 26.1779 26.28V26.7792C26.1779 26.9081 26.0725 27.0136 25.9436 27.0136H24.4576V27.7097H25.9436C26.0725 27.7097 26.1779 27.8152 26.1779 27.9441V28.4433C26.1779 28.5722 26.0725 28.6777 25.9436 28.6777H24.4576V29.8917C24.4576 30.0206 24.3521 30.1261 24.2232 30.1261H23.2553C23.1264 30.1261 23.0209 30.0206 23.0209 29.8917V28.6777H21.542C21.4131 28.6777 21.3076 28.5722 21.3076 28.4433V27.9441C21.3076 27.8152 21.4131 27.7097 21.542 27.7097H23.0209V27.0136H21.542C21.4131 27.0136 21.3076 26.9081 21.3076 26.7792V26.28C21.3076 26.1511 21.4131 26.0456 21.542 26.0456H22.6014L20.5389 22.2698C20.4779 22.1573 20.5178 22.0144 20.6326 21.9511C20.6678 21.9323 20.7053 21.923 20.7451 21.923H21.8232C21.9123 21.923 21.992 21.9722 22.0318 22.0519L23.7404 25.4339L25.4561 22.0519C25.4755 22.0132 25.5053 21.9807 25.5421 21.958C25.579 21.9352 25.6214 21.9231 25.6646 21.923H26.7193C26.8482 21.923 26.9537 22.0284 26.9537 22.1573C26.9561 22.1972 26.9467 22.2347 26.9279 22.2698V22.2698Z" fill="#56CCF2"/>
</svg>
