<svg width="32" height="32" viewBox="0 0 32 32" fill="none" xmlns="http://www.w3.org/2000/svg">
<rect x="0.5" y="0.5" width="31" height="31" rx="15.5" stroke="url(#paint0_linear)"/>
<path fill-rule="evenodd" clip-rule="evenodd" d="M16.0008 9.26361C14.1397 9.26361 12.6323 10.7692 12.6323 12.6282C12.6323 14.4871 14.1397 15.9927 16.0008 15.9927C17.8618 15.9927 19.3692 14.4871 19.3692 12.6282C19.3692 10.7692 17.8618 9.26361 16.0008 9.26361ZM17.6849 12.6286C17.6849 11.7033 16.927 10.9463 16.0007 10.9463C15.0744 10.9463 14.3165 11.7033 14.3165 12.6286C14.3165 13.5538 15.0744 14.3108 16.0007 14.3108C16.927 14.3108 17.6849 13.5538 17.6849 12.6286ZM21.0535 21.0404C20.885 20.4432 18.2745 19.3581 16.0008 19.3581C13.7356 19.3581 11.1419 20.4348 10.9482 21.0404H21.0535ZM9.26367 21.0392C9.26367 18.8018 13.7521 17.6747 16.0005 17.6747C18.2489 17.6747 22.7374 18.8018 22.7374 21.0392V22.7215H9.26367V21.0392Z" fill="#4886FF"/>
<defs>
<linearGradient id="paint0_linear" x1="16" y1="0" x2="16" y2="32" gradientUnits="userSpaceOnUse">
<stop stop-color="#4886FF"/>
<stop offset="1" stop-color="#0E5DF8"/>
</linearGradient>
</defs>
</svg>
