<svg width="32" height="32" viewBox="0 0 32 32" fill="none" xmlns="http://www.w3.org/2000/svg">
<rect x="0.5" y="0.5" width="31" height="31" rx="15.5" stroke="url(#paint0_linear)"/>
<path d="M21.0521 19.7802H11.3679C9.50685 19.7802 7.99949 18.2746 7.99949 16.4157C7.99949 14.5568 9.50685 13.0511 11.3679 13.0511H21.8942C23.0563 13.0511 23.9995 13.9932 23.9995 15.154C23.9995 16.3148 23.0563 17.2568 21.8942 17.2568H13.0521C12.589 17.2568 12.21 16.8783 12.21 16.4157C12.21 15.9531 12.589 15.5746 13.0521 15.5746H21.0521V14.3128H13.0521C11.89 14.3128 10.9469 15.2549 10.9469 16.4157C10.9469 17.5765 11.89 18.5185 13.0521 18.5185H21.8942C23.7553 18.5185 25.2626 17.0129 25.2626 15.154C25.2626 13.2951 23.7553 11.7894 21.8942 11.7894H11.3679C8.80791 11.7894 6.73633 13.8586 6.73633 16.4157C6.73633 18.9727 8.80791 21.0419 11.3679 21.0419H21.0521V19.7802Z" fill="url(#paint1_linear)"/>
<defs>
<linearGradient id="paint0_linear" x1="16" y1="0" x2="16" y2="32" gradientUnits="userSpaceOnUse">
<stop stop-color="#4886FF"/>
<stop offset="1" stop-color="#0E5DF8"/>
</linearGradient>
<linearGradient id="paint1_linear" x1="15.9995" y1="11.7894" x2="15.9995" y2="21.0419" gradientUnits="userSpaceOnUse">
<stop stop-color="#4886FF"/>
<stop offset="1" stop-color="#0E5DF8"/>
</linearGradient>
</defs>
</svg>
