<svg width="32" height="32" viewBox="0 0 32 32" fill="none" xmlns="http://www.w3.org/2000/svg">
<rect x="0.5" y="0.5" width="31" height="31" rx="15.5" stroke="url(#paint0_linear)"/>
<path fill-rule="evenodd" clip-rule="evenodd" d="M15.9917 7.57922C11.3433 7.57922 7.5791 11.3475 7.5791 15.9906C7.5791 20.6337 11.3433 24.4021 15.9917 24.4021C20.6486 24.4021 24.4212 20.6337 24.4212 15.9906C24.4212 11.3475 20.6486 7.57922 15.9917 7.57922ZM15.9999 22.7199C12.2778 22.7199 9.26302 19.7086 9.26302 15.9908C9.26302 12.2729 12.2778 9.26165 15.9999 9.26165C19.722 9.26165 22.7367 12.2729 22.7367 15.9908C22.7367 19.7086 19.722 22.7199 15.9999 22.7199ZM15.1581 11.7847H16.4213V16.2007L20.2107 18.4466L19.5792 19.4812L15.1581 16.8316V11.7847Z" fill="url(#paint1_linear)"/>
<defs>
<linearGradient id="paint0_linear" x1="16" y1="0" x2="16" y2="32" gradientUnits="userSpaceOnUse">
<stop stop-color="#4886FF"/>
<stop offset="1" stop-color="#0E5DF8"/>
</linearGradient>
<linearGradient id="paint1_linear" x1="16.0002" y1="7.57922" x2="16.0002" y2="24.4021" gradientUnits="userSpaceOnUse">
<stop stop-color="#4886FF"/>
<stop offset="1" stop-color="#0E5DF8"/>
</linearGradient>
</defs>
</svg>
