<svg width="600" height="323" viewBox="0 0 600 323" fill="none" xmlns="http://www.w3.org/2000/svg">
<path opacity="0.1" d="M582.839 2.51367H14.8052C7.73308 2.51367 2 9.73801 2 18.6497V299.323C2 308.235 7.73308 315.459 14.8052 315.459H582.839C589.911 315.459 595.644 308.235 595.644 299.323V18.6497C595.644 9.73801 589.911 2.51367 582.839 2.51367Z" stroke="#080809" stroke-width="3"/>
<g opacity="0.3">
<path opacity="0.3" d="M359.647 145.4V103.76C359.647 98.2228 355.091 93.7188 349.491 93.7188H335.428C334.173 93.7188 333.155 94.7245 333.155 95.9656C333.155 97.2079 334.173 98.2134 335.428 98.2134H349.491C352.584 98.2134 355.101 100.701 355.101 103.76V145.4C355.101 148.459 352.584 150.946 349.491 150.946H281.016V98.2134H326.335C327.59 98.2134 328.609 97.2079 328.609 95.9656C328.609 94.7245 327.59 93.7188 326.335 93.7188H272.854C267.252 93.7188 262.696 98.2228 262.696 103.76V145.4C262.696 150.938 267.252 155.443 272.854 155.443H349.491C355.091 155.443 359.647 150.938 359.647 145.4ZM276.47 150.946H272.854C269.76 150.946 267.243 148.459 267.243 145.4V103.76C267.243 100.701 269.76 98.2134 272.854 98.2134H276.47V150.946Z" fill="#09090A"/>
<path opacity="0.3" d="M346.044 104.232H286.938C285.684 104.232 284.667 105.238 284.667 106.48C284.667 107.721 285.684 108.726 286.938 108.726H346.044C347.298 108.726 348.315 107.721 348.315 106.48C348.315 105.238 347.298 104.232 346.044 104.232Z" fill="#09090A"/>
<path opacity="0.3" d="M346.044 116.299H286.938C285.684 116.299 284.667 117.304 284.667 118.547C284.667 119.789 285.684 120.794 286.938 120.794H346.044C347.298 120.794 348.315 119.789 348.315 118.547C348.315 117.304 347.298 116.299 346.044 116.299Z" fill="#09090A"/>
<path opacity="0.3" d="M346.044 128.363H286.938C285.684 128.363 284.667 129.371 284.667 130.611C284.667 131.853 285.684 132.86 286.938 132.86H346.044C347.298 132.86 348.315 131.853 348.315 130.611C348.315 129.371 347.298 128.363 346.044 128.363Z" fill="#09090A"/>
<path opacity="0.3" d="M346.044 140.432H286.938C285.684 140.432 284.667 141.437 284.667 142.68C284.667 143.921 285.684 144.926 286.938 144.926H346.044C347.298 144.926 348.315 143.921 348.315 142.68C348.315 141.437 347.298 140.432 346.044 140.432Z" fill="#09090A"/>
<path opacity="0.3" d="M236.085 126.906H257.565C258.82 126.906 259.838 125.9 259.838 124.658C259.838 123.416 258.82 122.41 257.565 122.41H236.085C233.01 122.41 230.509 119.937 230.509 116.899V76.6688C230.509 73.6297 233.01 71.1568 236.085 71.1568C237.341 71.1568 238.359 70.1511 238.359 68.9089C238.359 67.6677 237.341 66.6621 236.085 66.6621C230.504 66.6621 225.964 71.151 225.964 76.6688V116.899C225.964 122.417 230.504 126.906 236.085 126.906Z" fill="#09090A"/>
<path opacity="0.3" d="M250.809 87.0588H323.186C328.317 87.0588 332.488 82.9342 332.488 77.8629V65.3206C332.488 64.0795 331.471 63.0727 330.215 63.0727C328.959 63.0727 327.942 64.0795 327.942 65.3206V77.8629C327.942 80.4552 325.809 82.564 323.186 82.564H250.809C248.188 82.564 246.056 80.4552 246.056 77.8629V59.1394C246.056 56.5469 248.188 54.4381 250.809 54.4381H323.186C325.093 54.4381 326.811 55.5587 327.561 57.2916C328.054 58.4329 329.392 58.9619 330.545 58.4735C331.7 57.9841 332.235 56.6641 331.74 55.5226C330.273 52.1334 326.916 49.9434 323.186 49.9434H250.809C245.681 49.9434 241.508 54.0681 241.508 59.1394V77.8629C241.508 82.9342 245.681 87.0588 250.809 87.0588Z" fill="#09090A"/>
<path opacity="0.3" d="M317.67 71.8691H256.327C255.072 71.8691 254.054 72.8748 254.054 74.1159C254.054 75.3583 255.072 76.3639 256.327 76.3639H317.67C318.926 76.3639 319.945 75.3583 319.945 74.1159C319.945 72.8748 318.926 71.8691 317.67 71.8691Z" fill="#09090A"/>
<path opacity="0.3" d="M317.67 60.6387H256.327C255.072 60.6387 254.054 61.6444 254.054 62.8866C254.054 64.1279 255.072 65.1334 256.327 65.1334H317.67C318.926 65.1334 319.945 64.1279 319.945 62.8866C319.945 61.6444 318.926 60.6387 317.67 60.6387Z" fill="#09090A"/>
<path opacity="0.3" d="M313.538 185.178H238.873C237.617 185.178 236.6 186.185 236.6 187.427C236.6 188.667 237.617 189.674 238.873 189.674H313.536C314.792 189.674 315.811 188.667 315.811 187.427C315.811 186.185 314.794 185.178 313.538 185.178Z" fill="#09090A"/>
<path opacity="0.3" d="M313.538 173.949H238.873C237.617 173.949 236.6 174.954 236.6 176.194C236.6 177.436 237.617 178.442 238.873 178.442H313.536C314.792 178.442 315.811 177.436 315.811 176.194C315.811 174.954 314.794 173.949 313.538 173.949Z" fill="#09090A"/>
<path opacity="0.3" d="M365.743 118.607C364.488 118.607 363.47 119.612 363.47 120.854C363.47 122.096 364.488 123.101 365.743 123.101C368.589 123.101 370.904 125.391 370.904 128.206V174.459C370.904 177.274 368.589 179.563 365.743 179.563H355.209C353.954 179.563 352.937 180.569 352.937 181.81C352.937 183.051 353.954 184.057 355.209 184.057H365.743C371.096 184.057 375.45 179.752 375.45 174.459V128.206C375.45 122.913 371.096 118.607 365.743 118.607Z" fill="#09090A"/>
<path opacity="0.3" d="M337.702 161.645H293.261C292.005 161.645 290.987 162.651 290.987 163.894C290.987 165.134 292.005 166.141 293.261 166.141H337.702C341.488 166.141 344.568 169.186 344.568 172.929V190.695C344.568 194.438 341.488 197.483 337.702 197.483H235.773C231.988 197.483 228.908 194.438 228.908 190.695V172.929C228.908 169.186 231.988 166.141 235.773 166.141H284.167C285.423 166.141 286.442 165.134 286.442 163.894C286.442 162.651 285.423 161.645 284.167 161.645H235.773C229.481 161.645 224.362 166.708 224.362 172.929V190.695C224.362 196.916 229.481 201.978 235.773 201.978H337.702C343.994 201.978 349.115 196.916 349.115 190.695V172.929C349.115 166.708 343.994 161.645 337.702 161.645Z" fill="#09090A"/>
</g>
<path d="M112.013 251.628L115.353 245.203H117.269L112.856 253.228V258H111.169V253.228L106.757 245.203H108.69L112.013 251.628ZM117.655 253.157C117.655 252.226 117.837 251.388 118.2 250.644C118.569 249.899 119.079 249.325 119.729 248.921C120.386 248.517 121.133 248.314 121.971 248.314C123.266 248.314 124.312 248.763 125.108 249.659C125.911 250.556 126.312 251.748 126.312 253.236V253.351C126.312 254.276 126.134 255.108 125.776 255.847C125.425 256.579 124.918 257.15 124.256 257.561C123.6 257.971 122.844 258.176 121.988 258.176C120.699 258.176 119.653 257.728 118.851 256.831C118.054 255.935 117.655 254.748 117.655 253.271V253.157ZM119.29 253.351C119.29 254.405 119.533 255.252 120.02 255.891C120.512 256.529 121.168 256.849 121.988 256.849C122.814 256.849 123.471 256.526 123.957 255.882C124.443 255.231 124.687 254.323 124.687 253.157C124.687 252.114 124.438 251.271 123.939 250.626C123.447 249.976 122.791 249.65 121.971 249.65C121.168 249.65 120.521 249.97 120.028 250.608C119.536 251.247 119.29 252.161 119.29 253.351ZM134.223 257.06C133.59 257.804 132.661 258.176 131.437 258.176C130.423 258.176 129.649 257.883 129.116 257.297C128.589 256.705 128.322 255.832 128.316 254.678V248.49H129.942V254.634C129.942 256.075 130.528 256.796 131.7 256.796C132.942 256.796 133.769 256.333 134.179 255.407V248.49H135.805V258H134.258L134.223 257.06ZM152.838 258H151.142V252.085H144.69V258H143.003V245.203H144.69V250.705H151.142V245.203H152.838V258ZM161.451 258C161.357 257.812 161.281 257.479 161.223 256.998C160.467 257.783 159.564 258.176 158.516 258.176C157.578 258.176 156.808 257.912 156.204 257.385C155.606 256.852 155.308 256.178 155.308 255.363C155.308 254.373 155.683 253.605 156.433 253.061C157.188 252.51 158.249 252.234 159.614 252.234H161.196V251.487C161.196 250.919 161.026 250.468 160.687 250.134C160.347 249.794 159.846 249.624 159.184 249.624C158.604 249.624 158.117 249.771 157.725 250.063C157.332 250.356 157.136 250.711 157.136 251.127H155.501C155.501 250.652 155.668 250.195 156.002 249.756C156.342 249.311 156.799 248.959 157.373 248.701C157.953 248.443 158.589 248.314 159.28 248.314C160.376 248.314 161.234 248.59 161.855 249.141C162.477 249.686 162.799 250.438 162.822 251.399V255.776C162.822 256.649 162.934 257.344 163.156 257.859V258H161.451ZM158.753 256.761C159.263 256.761 159.746 256.629 160.203 256.365C160.66 256.102 160.991 255.759 161.196 255.337V253.386H159.922C157.93 253.386 156.934 253.969 156.934 255.135C156.934 255.645 157.104 256.043 157.443 256.33C157.783 256.617 158.22 256.761 158.753 256.761ZM168.368 255.794L170.724 248.49H172.385L168.975 258H167.735L164.29 248.49H165.951L168.368 255.794ZM177.772 258.176C176.483 258.176 175.435 257.754 174.626 256.91C173.817 256.061 173.413 254.927 173.413 253.509V253.21C173.413 252.267 173.592 251.426 173.949 250.688C174.312 249.943 174.816 249.363 175.461 248.947C176.111 248.525 176.814 248.314 177.57 248.314C178.807 248.314 179.768 248.722 180.453 249.536C181.139 250.351 181.481 251.517 181.481 253.034V253.711H175.039C175.062 254.648 175.335 255.407 175.856 255.987C176.384 256.562 177.052 256.849 177.86 256.849C178.435 256.849 178.921 256.731 179.319 256.497C179.718 256.263 180.066 255.952 180.365 255.565L181.358 256.339C180.562 257.563 179.366 258.176 177.772 258.176ZM177.57 249.65C176.914 249.65 176.363 249.891 175.918 250.371C175.473 250.846 175.197 251.514 175.092 252.375H179.855V252.252C179.809 251.426 179.586 250.787 179.188 250.336C178.789 249.879 178.25 249.65 177.57 249.65ZM197.926 258H196.229L189.787 248.139V258H188.091V245.203H189.787L196.247 255.108V245.203H197.926V258ZM200.237 253.157C200.237 252.226 200.419 251.388 200.782 250.644C201.151 249.899 201.661 249.325 202.312 248.921C202.968 248.517 203.715 248.314 204.553 248.314C205.848 248.314 206.894 248.763 207.69 249.659C208.493 250.556 208.895 251.748 208.895 253.236V253.351C208.895 254.276 208.716 255.108 208.358 255.847C208.007 256.579 207.5 257.15 206.838 257.561C206.182 257.971 205.426 258.176 204.57 258.176C203.281 258.176 202.235 257.728 201.433 256.831C200.636 255.935 200.237 254.748 200.237 253.271V253.157ZM201.872 253.351C201.872 254.405 202.115 255.252 202.602 255.891C203.094 256.529 203.75 256.849 204.57 256.849C205.396 256.849 206.053 256.526 206.539 255.882C207.025 255.231 207.269 254.323 207.269 253.157C207.269 252.114 207.02 251.271 206.521 250.626C206.029 249.976 205.373 249.65 204.553 249.65C203.75 249.65 203.103 249.97 202.61 250.608C202.118 251.247 201.872 252.161 201.872 253.351ZM213.14 246.188V248.49H214.915V249.747H213.14V255.645C213.14 256.025 213.219 256.312 213.377 256.506C213.535 256.693 213.805 256.787 214.186 256.787C214.373 256.787 214.631 256.752 214.959 256.682V258C214.531 258.117 214.115 258.176 213.711 258.176C212.984 258.176 212.437 257.956 212.067 257.517C211.698 257.077 211.514 256.453 211.514 255.645V249.747H209.782V248.49H211.514V246.188H213.14ZM230.955 253.939C230.797 255.293 230.296 256.339 229.452 257.077C228.614 257.81 227.498 258.176 226.104 258.176C224.592 258.176 223.379 257.634 222.465 256.55C221.557 255.466 221.103 254.016 221.103 252.199V250.969C221.103 249.779 221.313 248.733 221.735 247.831C222.163 246.929 222.767 246.237 223.546 245.757C224.325 245.271 225.228 245.027 226.253 245.027C227.612 245.027 228.702 245.408 229.522 246.17C230.343 246.926 230.82 247.975 230.955 249.316H229.259C229.112 248.297 228.793 247.559 228.301 247.102C227.814 246.645 227.132 246.416 226.253 246.416C225.175 246.416 224.328 246.814 223.713 247.611C223.104 248.408 222.799 249.542 222.799 251.013V252.252C222.799 253.641 223.089 254.745 223.669 255.565C224.249 256.386 225.061 256.796 226.104 256.796C227.041 256.796 227.759 256.585 228.257 256.163C228.761 255.735 229.095 254.994 229.259 253.939H230.955ZM237.608 249.949C237.362 249.908 237.096 249.888 236.809 249.888C235.742 249.888 235.019 250.342 234.638 251.25V258H233.012V248.49H234.594L234.62 249.589C235.153 248.739 235.909 248.314 236.888 248.314C237.204 248.314 237.444 248.355 237.608 248.438V249.949ZM242.882 258.176C241.593 258.176 240.544 257.754 239.735 256.91C238.927 256.061 238.522 254.927 238.522 253.509V253.21C238.522 252.267 238.701 251.426 239.059 250.688C239.422 249.943 239.926 249.363 240.57 248.947C241.221 248.525 241.924 248.314 242.68 248.314C243.916 248.314 244.877 248.722 245.562 249.536C246.248 250.351 246.591 251.517 246.591 253.034V253.711H240.148C240.172 254.648 240.444 255.407 240.966 255.987C241.493 256.562 242.161 256.849 242.97 256.849C243.544 256.849 244.03 256.731 244.429 256.497C244.827 256.263 245.176 255.952 245.475 255.565L246.468 256.339C245.671 257.563 244.476 258.176 242.882 258.176ZM242.68 249.65C242.023 249.65 241.473 249.891 241.027 250.371C240.582 250.846 240.307 251.514 240.201 252.375H244.965V252.252C244.918 251.426 244.695 250.787 244.297 250.336C243.898 249.879 243.359 249.65 242.68 249.65ZM254.352 258C254.258 257.812 254.182 257.479 254.123 256.998C253.367 257.783 252.465 258.176 251.416 258.176C250.479 258.176 249.708 257.912 249.104 257.385C248.507 256.852 248.208 256.178 248.208 255.363C248.208 254.373 248.583 253.605 249.333 253.061C250.089 252.51 251.149 252.234 252.515 252.234H254.097V251.487C254.097 250.919 253.927 250.468 253.587 250.134C253.247 249.794 252.746 249.624 252.084 249.624C251.504 249.624 251.018 249.771 250.625 250.063C250.232 250.356 250.036 250.711 250.036 251.127H248.401C248.401 250.652 248.568 250.195 248.902 249.756C249.242 249.311 249.699 248.959 250.273 248.701C250.854 248.443 251.489 248.314 252.181 248.314C253.276 248.314 254.135 248.59 254.756 249.141C255.377 249.686 255.699 250.438 255.723 251.399V255.776C255.723 256.649 255.834 257.344 256.057 257.859V258H254.352ZM251.653 256.761C252.163 256.761 252.646 256.629 253.104 256.365C253.561 256.102 253.892 255.759 254.097 255.337V253.386H252.822C250.83 253.386 249.834 253.969 249.834 255.135C249.834 255.645 250.004 256.043 250.344 256.33C250.684 256.617 251.12 256.761 251.653 256.761ZM260.478 246.188V248.49H262.253V249.747H260.478V255.645C260.478 256.025 260.557 256.312 260.715 256.506C260.873 256.693 261.143 256.787 261.523 256.787C261.711 256.787 261.969 256.752 262.297 256.682V258C261.869 258.117 261.453 258.176 261.049 258.176C260.322 258.176 259.774 257.956 259.405 257.517C259.036 257.077 258.852 256.453 258.852 255.645V249.747H257.12V248.49H258.852V246.188H260.478ZM268.106 258.176C266.817 258.176 265.769 257.754 264.96 256.91C264.151 256.061 263.747 254.927 263.747 253.509V253.21C263.747 252.267 263.926 251.426 264.283 250.688C264.646 249.943 265.15 249.363 265.795 248.947C266.445 248.525 267.148 248.314 267.904 248.314C269.141 248.314 270.102 248.722 270.787 249.536C271.473 250.351 271.815 251.517 271.815 253.034V253.711H265.373C265.396 254.648 265.669 255.407 266.19 255.987C266.718 256.562 267.386 256.849 268.194 256.849C268.769 256.849 269.255 256.731 269.653 256.497C270.052 256.263 270.4 255.952 270.699 255.565L271.692 256.339C270.896 257.563 269.7 258.176 268.106 258.176ZM267.904 249.65C267.248 249.65 266.697 249.891 266.252 250.371C265.807 250.846 265.531 251.514 265.426 252.375H270.189V252.252C270.143 251.426 269.92 250.787 269.521 250.336C269.123 249.879 268.584 249.65 267.904 249.65ZM273.31 253.166C273.31 251.707 273.655 250.535 274.347 249.65C275.038 248.76 275.943 248.314 277.062 248.314C278.176 248.314 279.058 248.695 279.708 249.457V244.5H281.334V258H279.84L279.761 256.98C279.11 257.777 278.205 258.176 277.045 258.176C275.943 258.176 275.044 257.725 274.347 256.822C273.655 255.92 273.31 254.742 273.31 253.289V253.166ZM274.936 253.351C274.936 254.429 275.158 255.272 275.604 255.882C276.049 256.491 276.664 256.796 277.449 256.796C278.48 256.796 279.233 256.333 279.708 255.407V251.039C279.222 250.143 278.475 249.694 277.467 249.694C276.67 249.694 276.049 250.002 275.604 250.617C275.158 251.232 274.936 252.144 274.936 253.351ZM295.651 254.66H290.29L289.086 258H287.346L292.232 245.203H293.709L298.604 258H296.873L295.651 254.66ZM290.8 253.271H295.15L292.971 247.286L290.8 253.271ZM301.61 248.49L301.663 249.686C302.39 248.771 303.339 248.314 304.511 248.314C306.521 248.314 307.534 249.448 307.552 251.716V258H305.926V251.707C305.92 251.021 305.762 250.515 305.451 250.187C305.146 249.858 304.669 249.694 304.019 249.694C303.491 249.694 303.028 249.835 302.63 250.116C302.231 250.397 301.921 250.767 301.698 251.224V258H300.072V248.49H301.61ZM313.115 255.618L315.33 248.49H317.07L313.247 259.468C312.655 261.05 311.715 261.841 310.426 261.841L310.118 261.814L309.512 261.7V260.382L309.951 260.417C310.502 260.417 310.93 260.306 311.234 260.083C311.545 259.86 311.8 259.453 311.999 258.861L312.359 257.895L308.967 248.49H310.742L313.115 255.618ZM326.009 253.966L326.255 255.653L326.615 254.133L329.146 245.203H330.57L333.04 254.133L333.392 255.68L333.664 253.957L335.65 245.203H337.347L334.244 258H332.706L330.069 248.675L329.867 247.699L329.665 248.675L326.932 258H325.394L322.3 245.203H323.987L326.009 253.966ZM338.261 253.157C338.261 252.226 338.442 251.388 338.806 250.644C339.175 249.899 339.685 249.325 340.335 248.921C340.991 248.517 341.738 248.314 342.576 248.314C343.871 248.314 344.917 248.763 345.714 249.659C346.517 250.556 346.918 251.748 346.918 253.236V253.351C346.918 254.276 346.739 255.108 346.382 255.847C346.03 256.579 345.523 257.15 344.861 257.561C344.205 257.971 343.449 258.176 342.594 258.176C341.305 258.176 340.259 257.728 339.456 256.831C338.659 255.935 338.261 254.748 338.261 253.271V253.157ZM339.896 253.351C339.896 254.405 340.139 255.252 340.625 255.891C341.117 256.529 341.773 256.849 342.594 256.849C343.42 256.849 344.076 256.526 344.562 255.882C345.049 255.231 345.292 254.323 345.292 253.157C345.292 252.114 345.043 251.271 344.545 250.626C344.053 249.976 343.396 249.65 342.576 249.65C341.773 249.65 341.126 249.97 340.634 250.608C340.142 251.247 339.896 252.161 339.896 253.351ZM353.554 249.949C353.308 249.908 353.041 249.888 352.754 249.888C351.688 249.888 350.964 250.342 350.583 251.25V258H348.957V248.49H350.539L350.565 249.589C351.099 248.739 351.854 248.314 352.833 248.314C353.149 248.314 353.39 248.355 353.554 248.438V249.949ZM355.997 258V249.747H354.494V248.49H355.997V247.515C355.997 246.495 356.27 245.707 356.814 245.15C357.359 244.594 358.13 244.315 359.126 244.315C359.501 244.315 359.873 244.365 360.242 244.465L360.154 245.783C359.879 245.73 359.586 245.704 359.275 245.704C358.748 245.704 358.341 245.859 358.054 246.17C357.767 246.475 357.623 246.914 357.623 247.488V248.49H359.653V249.747H357.623V258H355.997ZM364.109 253.597L363.09 254.66V258H361.464V244.5H363.09V252.665L363.96 251.619L366.922 248.49H368.899L365.199 252.463L369.33 258H367.423L364.109 253.597ZM376.52 245.88C375.793 245.763 375.207 245.704 374.762 245.704C373.59 245.704 373.004 246.319 373.004 247.55V248.49H375.034V249.747H373.004V258H371.378V249.747H369.875V248.49H371.378V247.453C371.384 246.439 371.668 245.663 372.23 245.124C372.793 244.585 373.593 244.315 374.63 244.315C375.222 244.315 376.394 244.494 378.146 244.852V258H376.52V245.88ZM380.378 253.157C380.378 252.226 380.56 251.388 380.923 250.644C381.292 249.899 381.802 249.325 382.452 248.921C383.108 248.517 383.855 248.314 384.693 248.314C385.988 248.314 387.034 248.763 387.831 249.659C388.634 250.556 389.035 251.748 389.035 253.236V253.351C389.035 254.276 388.856 255.108 388.499 255.847C388.147 256.579 387.641 257.15 386.979 257.561C386.322 257.971 385.566 258.176 384.711 258.176C383.422 258.176 382.376 257.728 381.573 256.831C380.776 255.935 380.378 254.748 380.378 253.271V253.157ZM382.013 253.351C382.013 254.405 382.256 255.252 382.742 255.891C383.234 256.529 383.891 256.849 384.711 256.849C385.537 256.849 386.193 256.526 386.68 255.882C387.166 255.231 387.409 254.323 387.409 253.157C387.409 252.114 387.16 251.271 386.662 250.626C386.17 249.976 385.514 249.65 384.693 249.65C383.891 249.65 383.243 249.97 382.751 250.608C382.259 251.247 382.013 252.161 382.013 253.351ZM399.494 255.759L401.322 248.49H402.948L400.18 258H398.861L396.55 250.793L394.3 258H392.981L390.222 248.49H391.839L393.711 255.609L395.926 248.49H397.235L399.494 255.759ZM410.146 255.478C410.146 255.038 409.979 254.698 409.646 254.458C409.317 254.212 408.74 254.001 407.914 253.825C407.094 253.649 406.44 253.438 405.954 253.192C405.474 252.946 405.116 252.653 404.882 252.313C404.653 251.974 404.539 251.569 404.539 251.101C404.539 250.321 404.867 249.662 405.523 249.123C406.186 248.584 407.029 248.314 408.055 248.314C409.133 248.314 410.006 248.593 410.674 249.149C411.348 249.706 411.685 250.418 411.685 251.285H410.05C410.05 250.84 409.859 250.456 409.479 250.134C409.104 249.812 408.629 249.65 408.055 249.65C407.463 249.65 407 249.779 406.666 250.037C406.332 250.295 406.165 250.632 406.165 251.048C406.165 251.44 406.32 251.736 406.631 251.936C406.941 252.135 407.501 252.325 408.31 252.507C409.124 252.688 409.783 252.905 410.287 253.157C410.791 253.409 411.163 253.714 411.403 254.071C411.649 254.423 411.772 254.854 411.772 255.363C411.772 256.213 411.433 256.896 410.753 257.411C410.073 257.921 409.191 258.176 408.107 258.176C407.346 258.176 406.672 258.041 406.086 257.771C405.5 257.502 405.04 257.127 404.706 256.646C404.378 256.16 404.214 255.636 404.214 255.073H405.84C405.869 255.618 406.086 256.052 406.49 256.374C406.9 256.69 407.439 256.849 408.107 256.849C408.723 256.849 409.215 256.726 409.584 256.479C409.959 256.228 410.146 255.894 410.146 255.478ZM425.677 254.66H420.315L419.111 258H417.371L422.258 245.203H423.734L428.63 258H426.898L425.677 254.66ZM420.825 253.271H425.176L422.996 247.286L420.825 253.271ZM435.635 255.478C435.635 255.038 435.468 254.698 435.134 254.458C434.806 254.212 434.229 254.001 433.402 253.825C432.582 253.649 431.929 253.438 431.442 253.192C430.962 252.946 430.604 252.653 430.37 252.313C430.142 251.974 430.027 251.569 430.027 251.101C430.027 250.321 430.355 249.662 431.012 249.123C431.674 248.584 432.518 248.314 433.543 248.314C434.621 248.314 435.494 248.593 436.162 249.149C436.836 249.706 437.173 250.418 437.173 251.285H435.538C435.538 250.84 435.348 250.456 434.967 250.134C434.592 249.812 434.117 249.65 433.543 249.65C432.951 249.65 432.488 249.779 432.154 250.037C431.82 250.295 431.653 250.632 431.653 251.048C431.653 251.44 431.809 251.736 432.119 251.936C432.43 252.135 432.989 252.325 433.798 252.507C434.612 252.688 435.271 252.905 435.775 253.157C436.279 253.409 436.651 253.714 436.892 254.071C437.138 254.423 437.261 254.854 437.261 255.363C437.261 256.213 436.921 256.896 436.241 257.411C435.562 257.921 434.68 258.176 433.596 258.176C432.834 258.176 432.16 258.041 431.574 257.771C430.988 257.502 430.528 257.127 430.194 256.646C429.866 256.16 429.702 255.636 429.702 255.073H431.328C431.357 255.618 431.574 256.052 431.979 256.374C432.389 256.69 432.928 256.849 433.596 256.849C434.211 256.849 434.703 256.726 435.072 256.479C435.447 256.228 435.635 255.894 435.635 255.478ZM453.942 252.015C453.942 253.269 453.731 254.364 453.31 255.302C452.888 256.233 452.29 256.945 451.517 257.438C450.743 257.93 449.841 258.176 448.81 258.176C447.802 258.176 446.908 257.93 446.129 257.438C445.35 256.939 444.743 256.233 444.31 255.319C443.882 254.399 443.662 253.336 443.65 252.129V251.206C443.65 249.976 443.864 248.889 444.292 247.945C444.72 247.002 445.323 246.281 446.103 245.783C446.888 245.279 447.784 245.027 448.792 245.027C449.817 245.027 450.72 245.276 451.499 245.774C452.284 246.267 452.888 246.984 453.31 247.928C453.731 248.865 453.942 249.958 453.942 251.206V252.015ZM452.264 251.188C452.264 249.671 451.959 248.508 451.35 247.699C450.74 246.885 449.888 246.478 448.792 246.478C447.726 246.478 446.885 246.885 446.27 247.699C445.66 248.508 445.347 249.633 445.329 251.074V252.015C445.329 253.485 445.637 254.643 446.252 255.486C446.873 256.324 447.726 256.743 448.81 256.743C449.899 256.743 450.743 256.348 451.341 255.557C451.938 254.76 452.246 253.62 452.264 252.138V251.188ZM457.019 258V249.747H455.516V248.49H457.019V247.515C457.019 246.495 457.291 245.707 457.836 245.15C458.381 244.594 459.151 244.315 460.147 244.315C460.522 244.315 460.895 244.365 461.264 244.465L461.176 245.783C460.9 245.73 460.607 245.704 460.297 245.704C459.77 245.704 459.362 245.859 459.075 246.17C458.788 246.475 458.645 246.914 458.645 247.488V248.49H460.675V249.747H458.645V258H457.019ZM471.099 251.628L474.438 245.203H476.354L471.942 253.228V258H470.255V253.228L465.843 245.203H467.776L471.099 251.628ZM481.118 258.176C479.829 258.176 478.78 257.754 477.972 256.91C477.163 256.061 476.759 254.927 476.759 253.509V253.21C476.759 252.267 476.938 251.426 477.295 250.688C477.658 249.943 478.162 249.363 478.807 248.947C479.457 248.525 480.16 248.314 480.916 248.314C482.152 248.314 483.113 248.722 483.799 249.536C484.484 250.351 484.827 251.517 484.827 253.034V253.711H478.385C478.408 254.648 478.681 255.407 479.202 255.987C479.729 256.562 480.397 256.849 481.206 256.849C481.78 256.849 482.267 256.731 482.665 256.497C483.063 256.263 483.412 255.952 483.711 255.565L484.704 256.339C483.907 257.563 482.712 258.176 481.118 258.176ZM480.916 249.65C480.26 249.65 479.709 249.891 479.264 250.371C478.818 250.846 478.543 251.514 478.438 252.375H483.201V252.252C483.154 251.426 482.932 250.787 482.533 250.336C482.135 249.879 481.596 249.65 480.916 249.65ZM488.923 246.188V248.49H490.698V249.747H488.923V255.645C488.923 256.025 489.002 256.312 489.16 256.506C489.318 256.693 489.588 256.787 489.969 256.787C490.156 256.787 490.414 256.752 490.742 256.682V258C490.314 258.117 489.898 258.176 489.494 258.176C488.768 258.176 488.22 257.956 487.851 257.517C487.481 257.077 487.297 256.453 487.297 255.645V249.747H485.565V248.49H487.297V246.188H488.923Z" fill="#C1BDBD"/>
<path d="M327.431 185.325C327.431 184.14 327.575 183.197 327.862 182.494C328.15 181.792 328.675 181.102 329.437 180.425C330.207 179.739 330.719 179.185 330.973 178.762C331.227 178.33 331.354 177.877 331.354 177.403C331.354 175.973 330.693 175.258 329.373 175.258C328.747 175.258 328.243 175.452 327.862 175.842C327.49 176.223 327.295 176.752 327.278 177.429H323.597C323.614 175.812 324.134 174.547 325.158 173.633C326.191 172.719 327.596 172.262 329.373 172.262C331.167 172.262 332.56 172.698 333.55 173.569C334.54 174.433 335.035 175.656 335.035 177.238C335.035 177.958 334.874 178.639 334.553 179.282C334.231 179.917 333.668 180.624 332.864 181.402L331.836 182.38C331.193 182.998 330.825 183.721 330.731 184.551L330.681 185.325H327.431ZM327.062 189.223C327.062 188.656 327.253 188.19 327.634 187.826C328.023 187.454 328.518 187.268 329.119 187.268C329.72 187.268 330.211 187.454 330.592 187.826C330.981 188.19 331.176 188.656 331.176 189.223C331.176 189.781 330.985 190.243 330.604 190.606C330.232 190.97 329.737 191.152 329.119 191.152C328.501 191.152 328.002 190.97 327.621 190.606C327.249 190.243 327.062 189.781 327.062 189.223Z" fill="#D1D1D1"/>
</svg>
