<svg width="161" height="161" viewBox="0 0 161 161" fill="none" xmlns="http://www.w3.org/2000/svg">
<mask id="mask0" mask-type="alpha" maskUnits="userSpaceOnUse" x="0" y="0" width="161" height="161">
<circle cx="80.5" cy="80.5" r="80.5" fill="#C4C4C4"/>
</mask>
<g mask="url(#mask0)">
<path d="M133.387 94.1726H136.522L136.183 97.3084H133.683L133.387 94.1726Z" fill="#F8AC47"/>
<mask id="mask1" mask-type="alpha" maskUnits="userSpaceOnUse" x="133" y="94" width="4" height="4">
<path d="M133.494 94.1097H136.453L136.133 97.3084H133.774L133.494 94.1097Z" fill="#F8AC47"/>
</mask>
<g mask="url(#mask1)">
<rect x="133.101" y="93.6027" width="4.84621" height="1.14028" rx="0.570142" fill="#DE830B"/>
</g>
<path d="M132.772 90.7094C134.138 91.9677 134.481 93.1308 134.47 93.6024H135.225C135.728 90.1136 136.688 82.9986 136.497 82.449L136.491 82.4331C136.258 81.7614 136.244 81.7216 134.47 81.7216C132.681 81.7216 133.357 81.1559 132.602 80.8326C132.238 80.6769 131.856 80.8551 131.555 81.1009C131.242 81.3563 131.27 81.8152 131.528 82.1257C131.134 81.9754 130.648 82.0505 130.567 82.4645C130.489 82.8571 130.563 83.343 130.691 83.7963C130.877 84.4528 131.522 84.8332 132.204 84.8332C131.905 85.2129 131.82 85.7134 131.917 86.1867C132.047 86.8236 132.111 87.5412 131.846 87.7428C131.682 87.8682 131.615 88.1333 131.601 88.4332C131.571 89.1139 132.368 89.3576 132.8 89.8846C132.982 90.1065 132.561 90.515 132.772 90.7094Z" fill="#5A87DF"/>
<path d="M135.096 93.3175C134.903 90.2793 134.46 83.9162 134.241 82.7699" stroke="#52CEB1"/>
<path d="M133.672 95.0281H136.523L136.4 96.4535H133.753L133.672 95.0281Z" fill="#DC820A"/>
<path d="M136.709 91.7436C136.005 92.1937 135.776 93.1053 135.752 93.562L135.028 93.6027C134.907 93.44 134.642 93.0005 134.545 92.5448C134.425 91.9751 134.908 90.795 135.149 90.0626C135.39 89.3302 135.109 89.0046 134.988 87.906C134.891 87.027 135.35 86.5903 135.592 86.4818C135.716 86.5761 135.884 86.4406 135.817 86.2992L135.712 86.0749C135.799 85.7688 135.66 84.9319 135.499 84.1851C135.428 83.8584 135.802 83.603 136.074 83.7962L135.753 82.984C135.65 82.7236 135.653 82.4257 135.809 82.1934C136.626 80.9789 137.828 81.3205 138.368 81.6802C138.931 83.2672 139.816 82.6975 140.58 82.901C141.345 83.1044 141.506 84.1217 141.264 84.3658C141.071 84.5612 139.797 84.7356 139.515 85.1696L139.558 85.3307C139.595 85.4724 139.668 85.6018 139.743 85.7275C139.862 85.9266 139.958 86.1922 139.816 86.3597C139.575 86.6445 139.575 88.5977 139.132 88.8826C138.778 89.1104 138.636 89.3302 138.609 89.4115C138.609 89.7979 137.922 90.1374 137.527 90.5136C137.457 90.5806 137.37 90.63 137.274 90.6441C137.026 90.6804 136.872 90.9357 136.95 91.174C137.021 91.3896 136.9 91.6213 136.709 91.7436Z" fill="#355EAF"/>
<path d="M137.152 91.6546C136.324 92.0612 136.062 93.0727 136.038 93.562L135.313 93.6027C135.193 93.44 134.927 93.0005 134.831 92.5448C134.71 91.9751 135.193 90.795 135.434 90.0626C135.675 89.3302 135.394 89.0046 135.273 87.906C135.177 87.027 135.635 86.5903 135.877 86.4818C136.001 86.5761 136.169 86.4406 136.102 86.2992L135.997 86.0749C136.084 85.7688 135.945 84.9319 135.784 84.1851C135.714 83.8584 136.087 83.603 136.359 83.7962L136.038 82.984C135.935 82.7236 135.938 82.4257 136.095 82.1934C136.911 80.9789 138.113 81.3205 138.653 81.6802C139.216 83.2672 140.101 82.6975 140.866 82.901C141.63 83.1044 141.791 84.1217 141.549 84.3658C141.356 84.5612 140.745 85.4781 140.463 85.9121C140.27 85.7705 140.078 86.0087 140.121 86.2445C140.13 86.2927 140.125 86.3321 140.101 86.3597C139.86 86.6445 139.86 88.5977 139.417 88.8826C139.063 89.1104 138.921 89.3302 138.894 89.4115C138.894 89.7884 138.32 90.5803 137.938 91.0462C137.865 91.136 137.735 91.153 137.639 91.0881C137.458 90.966 137.225 91.1425 137.293 91.3499C137.333 91.4703 137.266 91.5987 137.152 91.6546Z" fill="#436DBF"/>
<path d="M135.667 93.6025C135.907 91.4291 136.639 86.3955 139.088 83.3399" stroke="#204388" stroke-linecap="round" stroke-linejoin="round"/>
<rect x="133.101" y="93.3174" width="3.70592" height="1.14028" rx="0.570142" fill="#F8AC47"/>
<path d="M22.7783 101.014L26.622 101.014L37.5972 166.153L34.1894 166.171L22.7783 101.014Z" fill="#A1B9E4"/>
<path d="M20.8408 100.69L22.7787 101.014L34.0137 166.226L32.0834 165.876L20.8408 100.69Z" fill="#204B7E"/>
<path d="M143.281 101.014L147.07 101.014L158.33 166.153L154.625 166.153L143.281 101.014Z" fill="#A1B9E4"/>
<path d="M141.368 100.474L143.364 101.014L154.481 166.011L152.611 165.66L141.368 100.474Z" fill="#204B7E"/>
<rect x="-12" y="97.3084" width="50.1725" height="3.70592" fill="#204B7E"/>
<rect x="38.1729" y="97.3084" width="120.015" height="3.70592" fill="#A7BDE5"/>
<path d="M50.1482 52.7023C50.1083 52.1196 50.5743 51.6269 51.1583 51.6342L96.5116 52.1982C99.6305 52.237 102.199 54.659 102.422 57.7702L104.42 85.746C104.668 89.2204 101.915 92.1752 98.4322 92.1735L58.4464 92.1533C55.2927 92.1517 52.6785 89.709 52.4634 86.5626L50.1482 52.7023Z" fill="#1A4374"/>
<path d="M53.4912 51.6069L51.2106 52.6046L50.2129 54.0299H52.636L53.4912 51.6069Z" fill="#1A4374"/>
<path d="M104.023 91.8918L106.019 90.7516L105.591 90.4665L104.023 90.8941L103.453 91.7493L104.023 91.8918Z" fill="#1A4374"/>
<path d="M50.8898 57.8392C50.6417 54.366 53.3925 51.4117 56.8745 51.4117H98.1522C101.3 51.4117 103.913 53.8444 104.137 56.9842L106.131 84.8941C106.379 88.3673 103.628 91.3216 100.146 91.3216H58.8681C55.7203 91.3216 53.1076 88.8889 52.8833 85.7491L50.8898 57.8392Z" fill="#3769A5"/>
<path d="M50.5033 52.4795C50.464 51.9019 50.922 51.4117 51.501 51.4117H101.87C102.922 51.4117 103.794 52.2265 103.866 53.276L106.162 87.0456H52.8538L50.5033 52.4795Z" fill="#231F20"/>
<path d="M52.2251 53.3815C52.1858 52.8038 52.6438 52.3135 53.2228 52.3135H101.663C102.189 52.3135 102.625 52.7209 102.661 53.2455L104.89 85.9519H54.4453L52.2251 53.3815Z" fill="white"/>
<path d="M82.4637 75.9802L80.5585 73.9017L81.3622 73.0981L82.4637 74.1996L84.9509 71.7124L85.7546 72.6893L82.4637 75.9802ZM78.48 62.7058C81.5409 62.7058 84.0226 63.946 84.0226 65.4771C84.0226 67.0082 81.5409 68.2483 78.48 68.2483C75.4192 68.2483 72.9375 67.0082 72.9375 65.4771C72.9375 63.946 75.4192 62.7058 78.48 62.7058ZM72.9375 66.8627C72.9375 68.3938 75.4192 69.634 78.48 69.634C81.5409 69.634 84.0226 68.3938 84.0226 66.8627V68.9412C84.0226 69.2363 83.9304 69.5204 83.7593 69.7871C82.8727 69.538 81.9285 69.5905 81.075 69.9363C80.2215 70.2822 79.507 70.9018 79.044 71.6979L78.48 71.7124C75.4192 71.7124 72.9375 70.4723 72.9375 68.9412V66.8627ZM72.9375 70.3268C72.9375 71.8579 75.4192 73.0981 78.5375 73.0981L78.48 73.7909C78.48 74.2759 78.5632 74.7414 78.7156 75.1737L78.48 75.1765C75.4192 75.1765 72.9375 73.9364 72.9375 72.4052V70.3268Z" fill="#274C97"/>
<rect x="70.3857" y="91.8932" width="1.42536" height="5.41635" fill="#1A4374"/>
<rect x="71.8115" y="91.8921" width="20.8102" height="5.41635" fill="#3769A5"/>
<rect x="106.447" y="119.544" width="5.13128" height="42.4756" fill="#395BCC"/>
<rect x="105.449" y="119.544" width="7.41185" height="5.41635" rx="2" fill="#2F4CAC"/>
<path d="M59.3898 95.8649C59.9481 91.2801 67.8012 92.4237 71.4031 93.7284L71.0282 97.9181C68.0324 97.2423 63.7626 98.0145 62.337 97.8752C61.3289 97.8178 59.3282 97.3353 59.3898 95.8649Z" fill="#EE9F86"/>
<path d="M110.172 51.3691L110.348 50.8642C110.347 50.8655 110.343 50.8561 110.536 49.4404C110.788 47.6014 112.253 45.9278 114.202 44.9221C116.15 43.9164 119.303 45.1653 121.959 48.9221C124.084 51.9275 121.599 55.9423 121.586 59.9967L121.982 64.6676L114.352 65.7312C113.288 63.9549 113.861 61.2003 113.036 61.2015C112.515 61.2023 112.134 61.3423 111.558 61.2489C111.124 61.1784 110.878 60.7417 110.92 60.3032L110.954 59.9531C110.969 59.7991 110.948 59.644 110.893 59.5L110.725 59.063C110.586 58.6992 110.671 58.2863 110.944 58.0056L110.985 57.964L110.768 57.8896C110.462 57.7847 110.258 57.4971 110.259 57.1734L110.259 57.1533C110.26 56.882 110.11 56.6336 109.869 56.5095C109.541 56.34 109.394 55.9493 109.53 55.6035L110.201 53.891C110.248 53.77 110.249 53.6359 110.203 53.515C109.939 52.8273 109.928 52.0671 110.172 51.3691Z" fill="#EE9F86"/>
<path fill-rule="evenodd" clip-rule="evenodd" d="M117.554 44.7499C119.416 45.1548 121.573 46.1884 122.88 47.9699C124.191 49.7561 123.688 54.7333 122.976 58.5689C122.642 60.3721 121.032 61.6167 119.198 61.6167H117.668C116.005 61.6167 114.515 60.5879 113.927 59.0326L113.146 56.9708C113.18 56.937 113.272 56.7945 113.393 56.5942C114.064 55.4863 113.544 53.584 112.321 54.0103L112.158 52.4665C112.123 52.1359 111.847 51.8265 111.578 51.6305C111.055 51.2486 110.318 50.5016 109.701 49.8435C108.569 48.9376 107.431 47.201 109.272 44.8477C109.121 45.2088 108.933 46.0119 109.394 46.3355C109.353 46.1051 109.287 45.6037 109.355 45.4412C109.486 45.6564 109.796 46.091 109.988 46.1086C110.025 46.112 110.08 46.0398 110.171 45.9218L110.171 45.9218C110.661 45.2815 112.185 43.2928 117.47 44.7267C117.498 44.7343 117.526 44.7421 117.554 44.7499Z" fill="#393939"/>
<path d="M93.5811 154.819L91.1709 145.499L84.4016 147.727L87.7168 156.18L93.5811 154.819Z" fill="#EE9F86"/>
<path d="M87.2066 155.357C88.854 155.498 92.2753 154.543 93.7799 154.047L94.0056 153.973L95.5464 159.007C95.8649 160.047 95.295 161.155 94.2805 161.548C89.4328 163.43 81.888 167.001 78.7406 166.601C75.1013 166.139 79.5467 163.614 82.5541 161.513C84.7673 159.967 85.9588 157.739 87.2066 155.357Z" fill="#1D104A"/>
<path d="M94.0466 151.044C91.481 151.899 86.263 153.325 84.933 153.325C82.0106 143.689 72.4824 125.272 73.6144 112.275C73.9235 108.725 77.1213 106.445 80.6569 106.003L113.155 105.29V119.401L108.752 118.826C97.6809 117.38 88.57 127.43 91.0924 138.306L94.0466 151.044Z" fill="#5DB3BB"/>
<path d="M61.921 159.653L66.9648 147.766H59.8381L55.9251 159.112L61.921 159.653Z" fill="#EE9F86"/>
<path d="M55.6979 158.171C57.2187 158.82 60.7671 158.982 62.3512 158.982H62.5889L62.5888 163.742C62.5888 164.847 61.6935 165.742 60.5889 165.742H44.2922C40.992 165.742 45.6388 163.046 48.6992 161.811C51.4033 160.72 54.1681 159.15 55.6979 158.171Z" fill="#1D104A"/>
<path d="M63.7045 158.028C61.2602 158.028 56.6073 156.603 55.2773 156.603C57.48 148.311 67.3387 124.353 73.2897 110.534C74.3289 108.121 76.4393 106.342 78.988 105.704C80.084 105.429 81.2095 105.29 82.3394 105.29H113.147V119.401L96.2213 118.075C89.9271 117.581 83.9312 120.835 80.9149 126.382L63.7045 158.028Z" fill="#79C7CE"/>
<path d="M113.574 63.0292C118.278 63.9916 118.278 63.9916 121.841 62.7542C126.608 64.6799 129.664 69.3738 129.498 74.516L128.262 112.819L101.721 112.819L101.721 86.3226L101.135 87.5484C98.4254 93.2245 92.808 96.9496 86.5288 97.2346L70.8136 97.9478L70.8131 93.2762L83.4715 90.7922C88.8436 89.738 93.3855 86.1639 95.675 81.1891L101.72 68.0537C102.333 66.7223 103.46 65.6959 104.842 65.21L113.574 63.0292Z" fill="#E3482C"/>
<mask id="mask2" mask-type="alpha" maskUnits="userSpaceOnUse" x="70" y="62" width="60" height="51">
<path d="M113.574 63.0292C118.278 63.9916 118.278 63.9916 121.841 62.7542C126.608 64.6799 129.664 69.3738 129.498 74.516L128.262 112.819L101.721 112.819L101.721 86.3226L101.135 87.5484C98.4254 93.2245 92.808 96.9496 86.5288 97.2346L70.8136 97.9478L70.8131 93.2762L83.4715 90.7922C88.8436 89.738 93.3855 86.1639 95.675 81.1891L101.72 68.0537C102.333 66.7223 103.46 65.6959 104.842 65.21L113.574 63.0292Z" fill="#F5AA45"/>
</mask>
<g mask="url(#mask2)">
<path d="M104.88 65.238C103.512 64.8959 102.6 66.2358 102.315 66.9484C102.315 66.7584 102.001 66.8629 100.747 68.8014C99.4926 70.7399 80.4118 86.7134 70.6719 93.3175V98.1637H96.0432C99.5116 91.417 106.562 75.9567 107.589 73.7901C108.871 71.082 106.591 65.6656 104.88 65.238Z" fill="#CB3013"/>
</g>
<path d="M128.914 70.2267H105.734L100.603 114.593L95.7568 120.399L114.187 120.164C123.709 120.043 131.671 112.892 132.809 103.437L135.864 78.0634C136.365 73.8957 133.112 70.2267 128.914 70.2267Z" fill="#B1C9E5"/>
<path d="M86.0645 118.7V118.568C86.0645 117.86 86.6388 117.285 87.3473 117.285C94.1536 117.285 99.8617 112.147 100.575 105.378L104.159 71.3692C104.242 70.5805 104.948 70.0082 105.737 70.0906C106.524 70.1728 107.096 70.8755 107.017 71.6627L102.696 114.866C102.398 117.845 99.8911 120.114 96.8972 120.114H87.4788C86.6977 120.114 86.0645 119.481 86.0645 118.7Z" fill="#2F4CAC"/>
</g>
</svg>
