<svg width="32" height="32" viewBox="0 0 32 32" fill="none" xmlns="http://www.w3.org/2000/svg">
<rect x="0.5" y="0.5" width="31" height="31" rx="15.5" stroke="url(#paint0_linear)"/>
<path d="M12.2142 16.6668C12.2142 17.2843 12.0848 17.8282 11.8261 18.2987C11.5673 18.7692 11.191 19.1367 10.697 19.4013C10.2089 19.6601 9.6267 19.7895 8.95042 19.7895H6.73633V13.5618H8.95042C9.6267 13.5618 10.2089 13.6912 10.697 13.9499C11.191 14.2028 11.5673 14.5644 11.8261 15.0349C12.0848 15.4995 12.2142 16.0434 12.2142 16.6668ZM8.84456 18.678C9.51497 18.678 10.0325 18.5016 10.3971 18.1487C10.7676 17.7959 10.9528 17.3019 10.9528 16.6668C10.9528 16.0258 10.7676 15.5289 10.3971 15.176C10.0325 14.8232 9.51497 14.6468 8.84456 14.6468H7.9801V18.678H8.84456Z" fill="url(#paint1_linear)"/>
<path d="M19.8582 13.6324V19.7895H18.6233V15.4936L17.0443 19.7895H15.9681L14.3892 15.5112V19.7895H13.1454V13.6324H14.6538L16.5239 18.2634L18.3586 13.6324H19.8582Z" fill="url(#paint2_linear)"/>
<path d="M25.2626 18.087C25.2626 18.4046 25.1833 18.6986 25.0245 18.9691C24.8657 19.2337 24.6305 19.4484 24.3188 19.613C24.0071 19.7718 23.6278 19.8512 23.1809 19.8512C22.7398 19.8512 22.3458 19.7777 21.9988 19.6307C21.6519 19.4778 21.3726 19.2602 21.1608 18.9779C20.955 18.6956 20.8374 18.3663 20.808 17.99H22.1312C22.1606 18.2428 22.2605 18.4545 22.4311 18.6251C22.6075 18.7897 22.8398 18.8721 23.1279 18.8721C23.3867 18.8721 23.5837 18.8044 23.719 18.6692C23.8601 18.528 23.9307 18.3487 23.9307 18.1311C23.9307 17.937 23.8748 17.7783 23.7631 17.6548C23.6513 17.5254 23.5102 17.4225 23.3396 17.346C23.1691 17.2696 22.9339 17.1814 22.634 17.0814C22.2458 16.952 21.9283 16.8256 21.6813 16.7021C21.4343 16.5727 21.2226 16.3875 21.0462 16.1464C20.8756 15.9052 20.7904 15.5906 20.7904 15.2025C20.7904 14.6674 20.9815 14.2469 21.3637 13.9411C21.7519 13.6294 22.2635 13.4736 22.8986 13.4736C23.5572 13.4736 24.0806 13.6324 24.4687 13.9499C24.8628 14.2675 25.0862 14.6909 25.1391 15.2201H23.7983C23.7631 14.9967 23.669 14.8144 23.5161 14.6732C23.3632 14.5262 23.1544 14.4527 22.8898 14.4527C22.6604 14.4527 22.4752 14.5145 22.334 14.638C22.1929 14.7556 22.1223 14.929 22.1223 15.1584C22.1223 15.3407 22.1753 15.4936 22.2811 15.6171C22.3929 15.7347 22.5311 15.8317 22.6957 15.9082C22.8663 15.9846 23.0956 16.0699 23.3838 16.164C23.7836 16.3051 24.1071 16.4375 24.3541 16.5609C24.6069 16.6844 24.8216 16.8697 24.998 17.1167C25.1744 17.3637 25.2626 17.6871 25.2626 18.087Z" fill="url(#paint3_linear)"/>
<defs>
<linearGradient id="paint0_linear" x1="16" y1="0" x2="16" y2="32" gradientUnits="userSpaceOnUse">
<stop stop-color="#4886FF"/>
<stop offset="1" stop-color="#0E5DF8"/>
</linearGradient>
<linearGradient id="paint1_linear" x1="15.9995" y1="13.4736" x2="15.9995" y2="19.8512" gradientUnits="userSpaceOnUse">
<stop stop-color="#4886FF"/>
<stop offset="1" stop-color="#0E5DF8"/>
</linearGradient>
<linearGradient id="paint2_linear" x1="15.9995" y1="13.4736" x2="15.9995" y2="19.8512" gradientUnits="userSpaceOnUse">
<stop stop-color="#4886FF"/>
<stop offset="1" stop-color="#0E5DF8"/>
</linearGradient>
<linearGradient id="paint3_linear" x1="15.9995" y1="13.4736" x2="15.9995" y2="19.8512" gradientUnits="userSpaceOnUse">
<stop stop-color="#4886FF"/>
<stop offset="1" stop-color="#0E5DF8"/>
</linearGradient>
</defs>
</svg>
