<svg width="32" height="32" viewBox="0 0 32 32" fill="none" xmlns="http://www.w3.org/2000/svg">
<rect x="0.5" y="0.5" width="31" height="31" rx="15.5" stroke="url(#paint0_linear)"/>
<path fill-rule="evenodd" clip-rule="evenodd" d="M16.0002 7.57922C11.3517 7.57922 7.5791 11.3475 7.5791 15.9906C7.5791 20.6337 11.3517 24.4021 16.0002 24.4021C20.6486 24.4021 24.4212 20.6337 24.4212 15.9906C24.4212 11.3475 20.6486 7.57922 16.0002 7.57922ZM15.9999 22.7199C12.2862 22.7199 9.26302 19.7002 9.26302 15.9908C9.26302 12.2813 12.2862 9.26165 15.9999 9.26165C19.7135 9.26165 22.7367 12.2813 22.7367 15.9908C22.7367 19.7002 19.7135 22.7199 15.9999 22.7199ZM14.2904 13.8627C14.2904 14.4767 14.7704 14.8889 16.261 15.2674C17.7431 15.6543 19.3346 16.2936 19.3431 18.1441C19.3346 19.4983 18.3241 20.2301 17.0441 20.4741V21.8788H15.0736V20.4488C13.8104 20.1881 12.7494 19.3806 12.6652 17.9506H14.1136C14.1894 18.7245 14.7199 19.3301 16.0673 19.3301C17.5073 19.3301 17.8357 18.6067 17.8357 18.1609C17.8357 17.5553 17.5073 16.9749 15.8652 16.588C14.0378 16.1506 12.7831 15.3936 12.7831 13.8879C12.7831 12.6178 13.802 11.7935 15.0736 11.5243V10.1028H17.0357V11.5411C18.3999 11.8776 19.0904 12.9122 19.1325 14.0393H17.6925C17.6589 13.215 17.221 12.6599 16.0589 12.6599C14.9557 12.6599 14.2904 13.1561 14.2904 13.8627Z" fill="url(#paint1_linear)"/>
<defs>
<linearGradient id="paint0_linear" x1="16" y1="0" x2="16" y2="32" gradientUnits="userSpaceOnUse">
<stop stop-color="#4886FF"/>
<stop offset="1" stop-color="#0E5DF8"/>
</linearGradient>
<linearGradient id="paint1_linear" x1="16.0002" y1="7.57922" x2="16.0002" y2="24.4021" gradientUnits="userSpaceOnUse">
<stop stop-color="#4886FF"/>
<stop offset="1" stop-color="#0E5DF8"/>
</linearGradient>
</defs>
</svg>
