<svg width="13" height="13" viewBox="0 0 13 13" fill="none" xmlns="http://www.w3.org/2000/svg">
<path d="M5.97442 1.83112H2.10543C1.81225 1.83112 1.53108 1.9534 1.32377 2.17108C1.11646 2.38875 1 2.68398 1 2.99181V11.1167C1 11.4245 1.11646 11.7198 1.32377 11.9374C1.53108 12.1551 1.81225 12.2774 2.10543 12.2774H9.84342C10.1366 12.2774 10.4178 12.1551 10.6251 11.9374C10.8324 11.7198 10.9488 11.4245 10.9488 11.1167V7.05426" stroke="#AAB1B6" stroke-linecap="round" stroke-linejoin="round"/>
<path d="M10.1199 0.960558C10.3398 0.729681 10.638 0.599976 10.949 0.599976C11.2599 0.599976 11.5582 0.729681 11.778 0.960558C11.9979 1.19144 12.1215 1.50457 12.1215 1.83108C12.1215 2.15759 11.9979 2.47073 11.778 2.70161L6.52726 8.21493L4.31641 8.79527L4.86912 6.47388L10.1199 0.960558Z" stroke="#AAB1B6" stroke-linecap="round" stroke-linejoin="round"/>
</svg>
