<svg width="24" height="20" viewBox="0 0 24 20" fill="none" xmlns="http://www.w3.org/2000/svg">
<path fill-rule="evenodd" clip-rule="evenodd" d="M3.41934 2.54851C2.9433 2.54851 2.54851 2.9433 2.54851 3.41934V16.2899C2.54851 16.7659 2.9433 17.1607 3.41934 17.1607H20.58C21.0561 17.1607 21.4509 16.7659 21.4509 16.2899V3.41934C21.4509 2.9433 21.0561 2.54851 20.58 2.54851H3.41934ZM0 3.41934C0 1.53579 1.53579 0 3.41934 0H20.58C22.4636 0 23.9994 1.53579 23.9994 3.41934V16.2899C23.9994 18.1734 22.4636 19.7092 20.58 19.7092H3.41934C1.53579 19.7092 0 18.1734 0 16.2899V3.41934Z" fill="#B9BBBE"/>
<path fill-rule="evenodd" clip-rule="evenodd" d="M0.230454 2.6884C0.634029 2.11187 1.42857 1.97165 2.0051 2.37523L11.9998 9.37152L21.9945 2.37523C22.571 1.97165 23.3656 2.11187 23.7691 2.6884C24.1727 3.26494 24.0325 4.05948 23.456 4.46305L12.7305 11.9709C12.2918 12.278 11.7078 12.278 11.2691 11.9709L0.543627 4.46305C-0.0329087 4.05948 -0.173121 3.26494 0.230454 2.6884Z" fill="#B9BBBE"/>
</svg>
