<svg width="48" height="48" viewBox="0 0 48 48" fill="none" xmlns="http://www.w3.org/2000/svg">
<circle cx="24" cy="24" r="24" fill="white"/>
<path d="M23.7334 16.2889V34.3778" stroke="#F2C94C" stroke-width="2" stroke-linecap="round" stroke-linejoin="round"/>
<path d="M27.8442 19.5778H21.6776C20.9143 19.5778 20.1824 19.881 19.6427 20.4206C19.103 20.9603 18.7998 21.6923 18.7998 22.4555C18.7998 23.2188 19.103 23.9507 19.6427 24.4904C20.1824 25.0301 20.9143 25.3333 21.6776 25.3333H25.7887C26.5519 25.3333 27.2839 25.6365 27.8236 26.1762C28.3633 26.7159 28.6665 27.4479 28.6665 28.2111C28.6665 28.9743 28.3633 29.7063 27.8236 30.246C27.2839 30.7857 26.5519 31.0889 25.7887 31.0889H18.7998" stroke="#F2C94C" stroke-width="2" stroke-linecap="round" stroke-linejoin="round"/>
</svg>
