<svg width="32" height="32" viewBox="0 0 32 32" fill="none" xmlns="http://www.w3.org/2000/svg">
<rect x="0.5" y="0.5" width="31" height="31" rx="15.5" stroke="url(#paint0_linear)"/>
<path fill-rule="evenodd" clip-rule="evenodd" d="M20.8958 9.65598C20.8284 9.65598 20.7611 9.63916 20.7021 9.60551C19.0853 8.77279 17.6874 8.41951 16.0116 8.41951C14.3442 8.41951 12.7611 8.81484 11.3211 9.60551C11.119 9.71486 10.8663 9.63916 10.7484 9.43728C10.639 9.23541 10.7148 8.97466 10.9169 8.86531C12.4832 8.01576 14.2011 7.57837 16.0116 7.57837C17.8053 7.57837 19.3716 7.9737 21.0895 8.8569C21.3 8.96625 21.3758 9.21859 21.2663 9.42046C21.1905 9.57187 21.0474 9.65598 20.8958 9.65598ZM8.84559 14.0717C8.76138 14.0717 8.67717 14.0464 8.60138 13.996C8.40769 13.8614 8.36559 13.6006 8.50032 13.4072C9.33401 12.2296 10.3951 11.3043 11.6582 10.6566C14.3024 9.29401 17.6877 9.2856 20.3403 10.6482C21.6035 11.2959 22.6645 12.2127 23.4982 13.3819C23.6329 13.567 23.5908 13.8361 23.3972 13.9707C23.2035 14.1053 22.9424 14.0632 22.8077 13.8698C22.0498 12.81 21.0898 11.9772 19.9529 11.3968C17.5361 10.1604 14.4456 10.1604 12.0372 11.4053C10.8919 11.9941 9.9319 12.8352 9.17401 13.895C9.10664 14.0128 8.98032 14.0717 8.84559 14.0717ZM13.8142 24.0982C13.89 24.1823 13.9995 24.2244 14.1089 24.2244C14.2184 24.2244 14.3279 24.1823 14.4205 24.0982C14.5805 23.93 14.5805 23.6692 14.4205 23.501C13.7721 22.8449 13.4016 22.4327 12.8626 21.4654C12.3489 20.557 12.0795 19.4383 12.0795 18.2271C12.0795 16.1915 13.8395 14.5345 16.0037 14.5345C18.1679 14.5345 19.9279 16.1915 19.9279 18.2271C19.9279 18.4626 20.1131 18.6476 20.3489 18.6476C20.5847 18.6476 20.77 18.4626 20.77 18.2271C20.77 15.7289 18.631 13.6933 16.0037 13.6933C13.3763 13.6933 11.2374 15.7289 11.2374 18.2271C11.2374 19.5813 11.5405 20.843 12.1216 21.8776C12.6858 22.8954 13.0816 23.3664 13.8142 24.0982ZM20.1467 22.6686C19.1446 22.6686 18.2604 22.4162 17.5362 21.92C16.2815 21.0704 15.532 19.6909 15.532 18.2274C15.532 17.9918 15.7173 17.8068 15.953 17.8068C16.1888 17.8068 16.3741 17.9918 16.3741 18.2274C16.3741 19.4134 16.9804 20.5321 18.0078 21.2218C18.6057 21.6256 19.3046 21.819 20.1467 21.819C20.3488 21.819 20.6857 21.7938 21.0225 21.7349C21.2499 21.6929 21.4688 21.8443 21.511 22.0798C21.5531 22.3069 21.4015 22.5256 21.1657 22.5676C20.6857 22.6602 20.2646 22.6686 20.1467 22.6686ZM18.3445 24.3839C18.3782 24.3924 18.4203 24.4008 18.454 24.4008C18.6308 24.4008 18.8077 24.2746 18.8498 24.0811C18.9087 23.8624 18.7824 23.6269 18.555 23.568C17.3677 23.24 16.6013 22.8026 15.8013 22.0119C14.7824 21.0026 14.2266 19.6568 14.2266 18.2184C14.2266 17.3184 15.0098 16.5866 15.9782 16.5866C16.9466 16.5866 17.7298 17.3184 17.7298 18.2184C17.7298 19.5811 18.8919 20.6914 20.3234 20.6914C21.755 20.6914 22.9171 19.5811 22.9171 18.2184C22.9171 14.5847 19.8013 11.6323 15.9698 11.6323C13.2498 11.6323 10.7655 13.1548 9.64555 15.5015C9.2666 16.3006 9.07292 17.2175 9.07292 18.2268C9.07292 19.3624 9.27502 20.4558 9.68765 21.5577C9.76344 21.768 10.0077 21.8858 10.2266 21.8017C10.4455 21.726 10.555 21.482 10.4708 21.2633C9.96555 19.9175 9.9066 18.8829 9.9066 18.2268C9.9066 17.352 10.075 16.553 10.4034 15.8716C11.3887 13.8109 13.5782 12.4819 15.9698 12.4819C19.3382 12.4819 22.075 15.0557 22.075 18.2268C22.075 19.1268 21.2919 19.8586 20.3234 19.8586C19.355 19.8586 18.5719 19.1268 18.5719 18.2268C18.5719 16.8642 17.4098 15.7539 15.9782 15.7539C14.5466 15.7539 13.3845 16.8642 13.3845 18.2268C13.3845 19.8923 14.0329 21.4484 15.2119 22.6176C16.1298 23.5176 17.0055 24.0138 18.3445 24.3839Z" fill="url(#paint1_linear)"/>
<defs>
<linearGradient id="paint0_linear" x1="16" y1="0" x2="16" y2="32" gradientUnits="userSpaceOnUse">
<stop stop-color="#4886FF"/>
<stop offset="1" stop-color="#0E5DF8"/>
</linearGradient>
<linearGradient id="paint1_linear" x1="15.9993" y1="7.57837" x2="15.9993" y2="24.4008" gradientUnits="userSpaceOnUse">
<stop stop-color="#4886FF"/>
<stop offset="1" stop-color="#0E5DF8"/>
</linearGradient>
</defs>
</svg>
