<svg width="48" height="48" viewBox="0 0 48 48" fill="none" xmlns="http://www.w3.org/2000/svg">
<circle cx="24" cy="24" r="24" fill="white"/>
<path d="M32.3333 29.4666H26.428C26.2853 29.0659 26.0552 28.7019 25.7544 28.4011C25.4536 28.1003 25.0896 27.8702 24.6888 27.7275V24.6888H31.3777C31.6312 24.6888 31.8742 24.5882 32.0534 24.409C32.2326 24.2298 32.3333 23.9867 32.3333 23.7333C32.3333 23.4799 32.2326 23.2368 32.0534 23.0576C31.8742 22.8784 31.6312 22.7777 31.3777 22.7777H30.4222V17.0444C30.4222 16.2841 30.1202 15.555 29.5826 15.0174C29.0449 14.4798 28.3158 14.1777 27.5555 14.1777H19.9111C19.1508 14.1777 18.4216 14.4798 17.884 15.0174C17.3464 15.555 17.0444 16.2841 17.0444 17.0444V22.7777H16.0888C15.8354 22.7777 15.5924 22.8784 15.4132 23.0576C15.234 23.2368 15.1333 23.4799 15.1333 23.7333C15.1333 23.9867 15.234 24.2298 15.4132 24.409C15.5924 24.5882 15.8354 24.6888 16.0888 24.6888H22.7777V27.7275C22.377 27.8702 22.013 28.1003 21.7122 28.4011C21.4114 28.7019 21.1813 29.0659 21.0386 29.4666H15.1333C14.8799 29.4666 14.6368 29.5673 14.4576 29.7465C14.2784 29.9257 14.1777 30.1688 14.1777 30.4222C14.1777 30.6756 14.2784 30.9187 14.4576 31.0979C14.6368 31.2771 14.8799 31.3777 15.1333 31.3777H21.0386C21.2395 31.9311 21.6059 32.4093 22.088 32.7472C22.5701 33.0851 23.1446 33.2664 23.7333 33.2664C24.322 33.2664 24.8965 33.0851 25.3786 32.7472C25.8607 32.4093 26.2271 31.9311 26.428 31.3777H32.3333C32.5867 31.3777 32.8298 31.2771 33.009 31.0979C33.1882 30.9187 33.2888 30.6756 33.2888 30.4222C33.2888 30.1688 33.1882 29.9257 33.009 29.7465C32.8298 29.5673 32.5867 29.4666 32.3333 29.4666ZM18.9555 22.7777V17.0444C18.9555 16.791 19.0562 16.5479 19.2354 16.3687C19.4146 16.1895 19.6576 16.0888 19.9111 16.0888H27.5555C27.8089 16.0888 28.052 16.1895 28.2312 16.3687C28.4104 16.5479 28.5111 16.791 28.5111 17.0444V22.7777H18.9555ZM23.7333 31.3777C23.5443 31.3777 23.3596 31.3217 23.2024 31.2167C23.0453 31.1117 22.9228 30.9625 22.8505 30.7879C22.7781 30.6132 22.7592 30.4211 22.7961 30.2358C22.833 30.0504 22.924 29.8801 23.0576 29.7465C23.1912 29.6129 23.3615 29.5219 23.5469 29.485C23.7322 29.4481 23.9244 29.467 24.099 29.5394C24.2736 29.6117 24.4228 29.7342 24.5278 29.8913C24.6328 30.0484 24.6888 30.2332 24.6888 30.4222C24.6888 30.6756 24.5882 30.9187 24.409 31.0979C24.2298 31.2771 23.9867 31.3777 23.7333 31.3777Z" fill="#219653"/>
</svg>
