<svg width="48" height="48" viewBox="0 0 48 48" fill="none" xmlns="http://www.w3.org/2000/svg">
<circle cx="24" cy="24" r="24" fill="white"/>
<path d="M35.3436 22.0347C35.3436 22.0809 35.3552 22.1156 35.3783 22.1387C35.4015 22.1618 35.4015 22.1965 35.3783 22.2427V22.936C35.3783 23.1672 35.2972 23.3636 35.1348 23.5254C34.9725 23.6872 34.7753 23.768 34.5434 23.768H32.9431V35C32.9431 35.2312 32.8735 35.416 32.7343 35.5547C32.5952 35.6934 32.398 35.7743 32.1429 35.7974H16.0353C15.8033 35.7974 15.6062 35.7165 15.4438 35.5547C15.2815 35.3929 15.2003 35.208 15.2003 35V23.768H13.6C13.368 23.768 13.1825 23.6872 13.0433 23.5254C12.9042 23.3636 12.823 23.1672 12.7998 22.936V22.2427C12.7998 22.1503 12.8114 22.0809 12.8346 22.0347L14.8872 14.512C15.0032 14.1423 15.2003 13.8534 15.4786 13.6454C15.7569 13.4374 16.0816 13.3334 16.4527 13.3334H31.7254C32.0965 13.3334 32.4212 13.4374 32.6995 13.6454C32.9779 13.8534 33.1634 14.1423 33.2562 14.512L35.3436 22.0347ZM30.5426 23.768H17.6356V28.1707C17.6356 28.2863 17.682 28.3787 17.7747 28.448C17.8675 28.5174 17.9603 28.5636 18.0531 28.5867H30.1251C30.2411 28.5867 30.3454 28.5405 30.4382 28.448C30.531 28.3556 30.5658 28.2632 30.5426 28.1707V23.768Z" fill="#EB5757"/>
</svg>
