<svg width="21" height="13" viewBox="0 0 21 13" fill="none" xmlns="http://www.w3.org/2000/svg">
<path d="M10.3327 0C5.88192 0 2.08098 2.69533 0.541016 6.5C2.08098 10.3047 5.88192 13 10.3327 13C14.7834 13 18.5844 10.3047 20.1243 6.5C18.5844 2.69533 14.7834 0 10.3327 0ZM10.3327 10.8333C7.87586 10.8333 5.88192 8.892 5.88192 6.5C5.88192 4.108 7.87586 2.16667 10.3327 2.16667C12.7895 2.16667 14.7834 4.108 14.7834 6.5C14.7834 8.892 12.7895 10.8333 10.3327 10.8333ZM10.3327 3.9C8.85503 3.9 7.66223 5.06133 7.66223 6.5C7.66223 7.93867 8.85503 9.1 10.3327 9.1C11.8103 9.1 13.0031 7.93867 13.0031 6.5C13.0031 5.06133 11.8103 3.9 10.3327 3.9Z" fill="#484B5C"/>
</svg>
