<svg width="466" height="493" viewBox="0 0 466 493" fill="none" xmlns="http://www.w3.org/2000/svg">
<mask id="mask0" mask-type="alpha" maskUnits="userSpaceOnUse" x="0" y="0" width="466" height="493">
<rect width="466" height="493" fill="#C4C4C4"/>
</mask>
<g mask="url(#mask0)">
<path d="M341.337 407.862H145.405C144.288 407.862 143.32 406.969 143.32 405.778V404.141C143.32 403.024 144.214 402.057 145.405 402.057H341.337C342.454 402.057 343.422 402.95 343.422 404.141V405.778C343.348 406.895 342.454 407.862 341.337 407.862Z" fill="#CCCCCC"/>
<path d="M276.621 161.867C276.621 161.867 286.302 153.382 286.675 149.363C287.047 145.343 285.558 136.56 276.621 143.036V161.867Z" fill="#E5C19E"/>
<path d="M202.972 162.982C202.972 162.982 192.397 155.688 191.503 151.743C190.684 147.798 191.131 138.94 200.737 144.3L202.972 162.982Z" fill="#E5C19E"/>
<path d="M223.301 199.825C223.301 199.825 225.237 218.136 208.258 219.178C208.258 219.178 215.854 242.624 241.77 242.624C267.685 242.624 278.037 218.657 278.037 218.657C278.037 218.657 261.057 218.433 259.121 199.825C259.121 199.825 243.631 181.515 223.301 199.825Z" fill="#E5C19E"/>
<path d="M234.921 94.5059C234.921 94.5059 265.677 96.7388 273.124 114.305C280.496 131.871 277.667 169.831 276.624 178.465C275.581 187.099 259.943 211.736 246.091 211.736C232.24 211.736 205.132 195.063 202.377 169.756C199.622 144.45 197.164 122.864 204.09 109.541C210.941 96.2178 234.921 94.5059 234.921 94.5059Z" fill="#F3D5B3"/>
<path d="M276.47 150.33C276.47 150.33 283.768 131.127 285.108 116.836L268.129 126.065C268.129 126.065 275.427 125.023 276.47 150.33Z" fill="#242424"/>
<path d="M279.005 136.857C252.345 128.521 244.6 138.718 244.6 138.718L234.174 138.941C212.279 129.563 197.758 141.993 197.758 141.993C198.428 145.715 200.513 146.236 200.513 146.236C201.183 151.893 203.268 165.96 219.95 165.96C234.174 165.96 238.717 146.236 238.717 146.236H241.472C245.27 159.41 250.855 164.62 261.951 164.62C273.047 164.62 276.473 156.284 277.218 150.404C277.888 144.524 279.75 141.993 279.75 141.993L279.005 136.857ZM220.62 163.802C208.407 165.662 201.481 151.297 203.715 141.844C203.715 141.844 210.343 137.676 221.737 138.272C233.057 138.867 235.291 143.407 235.216 144.97C235.067 146.533 232.759 161.941 220.62 163.802ZM258.824 162.536C246.61 160.676 244.376 145.268 244.302 143.705C244.227 142.142 246.387 137.527 257.781 137.006C269.1 136.411 275.803 140.579 275.803 140.579C277.888 150.032 271.037 164.397 258.824 162.536Z" fill="#242424"/>
<path d="M367.921 396.919H163.351L156.127 323.828C156.127 323.828 155.978 325.912 155.755 329.261C155.234 335.96 154.117 347.794 152.18 359.48C152.18 359.555 152.18 359.555 152.18 359.629C151.212 365.286 150.095 370.868 148.829 375.855C146.67 383.819 144.063 390.146 140.712 392.528C128.797 401.162 126.786 400.12 126.786 400.12C126.786 400.12 128.797 395.059 125.52 394.24C122.243 393.496 123.212 394.538 121.052 392.081C121.052 392.081 111.892 384.489 111.445 383.596C110.998 382.629 111.594 380.024 108.02 379.875C108.02 379.875 116.956 373.697 118.669 372.729C118.669 372.729 123.211 347.274 127.456 323.232C130.509 305.964 133.414 289.514 134.457 283.783C136.914 270.162 140.489 244.632 156.723 237.412C172.958 230.118 205.65 218.879 205.65 218.879C205.65 218.879 211.533 216.795 212.204 218.507C212.204 218.507 213.544 226.099 221.066 231.234C225.012 233.914 230.672 235.998 238.715 235.998C249.737 235.998 257.184 232.946 262.173 229.299C267.908 225.131 270.588 220.219 271.929 218.209C271.929 218.209 273.642 216.125 276.248 216.72C278.855 217.316 338.878 235.7 343.346 248.949C345.431 255.202 354.144 282.071 362.783 308.643C372.39 338.267 381.773 367.593 381.773 367.593C381.773 367.593 392.199 390.295 367.921 396.919Z" fill="#BC065D"/>
<path d="M318.398 278.053V378.462H183.606L170.276 280.882C170.276 280.882 168.638 274.63 174.521 267.261C179.51 261.009 211.458 238.158 221.065 231.31C225.012 233.99 230.672 236.074 238.715 236.074C249.736 236.074 257.183 233.022 262.173 229.375H262.396C262.396 229.375 300.674 257.734 309.461 265.772C318.398 273.885 318.398 278.053 318.398 278.053Z" fill="#BC065D"/>
<path d="M89.8468 389.923C89.8468 389.923 85.4531 392.231 88.5808 400.195C91.7086 408.159 103.549 414.114 114.05 411.285C124.624 408.457 121.795 402.8 120.752 398.185C119.709 393.57 113.305 385.606 110.475 385.309C107.571 385.011 98.0385 384.043 89.8468 389.923Z" fill="#333333"/>
<path d="M297.622 82.4466C297.622 82.4466 287.941 93.2392 266.493 87.2846C245.046 81.3301 215.332 76.641 213.172 95.5466C213.172 95.5466 189.118 96.1421 199.917 146.16C199.917 146.16 204.906 124.873 219.651 114.08C219.651 114.08 228.662 128.148 250.259 128.148C271.855 128.148 307.973 119.365 307.973 82C307.973 82 301.345 96.2909 286.079 96.2909C286.004 96.3654 297.622 91.4528 297.622 82.4466Z" fill="#0D0C0C"/>
<path d="M156.503 329.336C155.908 339.236 154.269 349.284 152.259 359.332C152.259 359.407 152.259 359.407 152.259 359.481C151.216 364.915 150.025 370.348 148.907 375.707C146.748 383.672 144.141 389.998 140.79 392.38C128.875 401.014 126.864 399.972 126.864 399.972C126.864 399.972 128.875 394.911 125.598 394.092C122.322 393.348 123.29 394.39 121.13 391.934C121.13 391.934 111.97 384.342 111.523 383.448C111.077 382.481 111.672 379.876 108.098 379.727C108.098 379.727 117.034 373.549 118.747 372.581C118.747 372.581 123.29 347.126 127.535 323.084C137.067 322.563 147.79 325.987 155.833 329.039C156.131 329.188 156.355 329.262 156.503 329.336Z" fill="#F3D5B3"/>
<path d="M103.984 389.23C103.742 389.292 103.742 389.292 103.742 389.292L103.742 389.293L103.742 389.294L103.744 389.301L103.751 389.326L103.776 389.427C103.799 389.516 103.831 389.647 103.872 389.814C103.955 390.15 104.07 390.632 104.205 391.22C104.475 392.397 104.819 393.997 105.119 395.689C105.419 397.382 105.673 399.163 105.764 400.703C105.809 401.473 105.814 402.178 105.764 402.78C105.714 403.385 105.61 403.867 105.451 404.202C104.774 405.625 103.526 406.366 102.312 406.263C101.107 406.16 99.8364 405.214 99.144 403.052C98.422 400.797 96.9615 398.097 95.6905 395.971C95.0536 394.906 94.4614 393.98 94.0284 393.321C93.8119 392.991 93.6351 392.728 93.5124 392.547C93.451 392.456 93.4031 392.386 93.3705 392.339L93.3332 392.285L93.3236 392.271L93.3211 392.268L93.3205 392.267L93.3203 392.266C93.3203 392.266 93.3203 392.266 93.1151 392.409M93.1151 392.409L93.3203 392.266L92.8796 392.493L93.1151 392.409ZM93.1151 392.409L92.8796 392.493L92.8796 392.493L92.88 392.494L92.8815 392.498L92.8875 392.516L92.9111 392.584C92.9318 392.644 92.9618 392.732 92.9993 392.845C93.0741 393.071 93.1785 393.395 93.296 393.787C93.5313 394.571 93.8184 395.625 94.0278 396.704C94.2381 397.787 94.3665 398.878 94.2942 399.746C94.2202 400.634 93.9488 401.177 93.475 401.349L93.4587 401.355L93.4434 401.363C92.8922 401.655 92.3711 401.889 91.8276 401.974C91.2919 402.059 90.7224 402.001 90.0719 401.688C88.7528 401.053 87.0963 399.367 84.7897 395.662L84.7726 395.612C84.7555 395.561 84.7305 395.486 84.6991 395.39C84.6362 395.196 84.5474 394.916 84.4444 394.569C84.2382 393.875 83.9756 392.917 83.749 391.857C83.5223 390.797 83.3328 389.641 83.2712 388.551C83.2094 387.459 83.2774 386.455 83.5495 385.684C84.1176 384.242 85.67 383.688 87.2977 383.643C88.1028 383.621 88.9006 383.726 89.5539 383.897C89.8803 383.982 90.1669 384.082 90.3979 384.189C90.6324 384.297 90.7952 384.406 90.8875 384.5C90.9723 384.586 91.0717 384.652 91.1865 384.685C91.3028 384.718 91.4181 384.712 91.5254 384.679C91.7286 384.617 91.9067 384.46 92.0588 384.286C92.3676 383.933 92.681 383.376 92.9792 382.819C93.0454 382.695 93.1112 382.571 93.1763 382.447C93.4112 382.003 93.6387 381.573 93.8581 381.226C93.998 381.006 94.1263 380.832 94.2416 380.717C94.3645 380.594 94.4323 380.578 94.4514 380.578C94.6323 380.578 94.922 380.554 95.267 380.527C95.4127 380.515 95.5682 380.502 95.7296 380.49C96.2852 380.449 96.9352 380.413 97.5741 380.43C98.2158 380.447 98.8304 380.517 99.321 380.68C99.8137 380.844 100.14 381.087 100.278 381.422C100.656 382.337 101.377 383.023 102.112 383.194C102.487 383.281 102.873 383.234 103.199 382.999C103.521 382.766 103.751 382.374 103.871 381.836C104.073 380.933 104.94 379.982 106.05 379.316C107.159 378.651 108.423 378.323 109.354 378.571L109.354 378.571L109.364 378.573C110.335 378.789 111.213 379.33 112.036 379.979C112.447 380.303 112.84 380.65 113.223 380.994C113.28 381.045 113.337 381.096 113.394 381.147C113.714 381.435 114.027 381.717 114.333 381.971C114.491 382.112 114.69 382.35 114.934 382.679C115.177 383.007 115.454 383.412 115.768 383.876C115.856 384.006 115.947 384.141 116.04 384.28C116.61 385.125 117.278 386.118 118.037 387.142C119.801 389.521 122.08 392.106 124.809 393.451C125.481 393.782 126.173 394.101 126.857 394.416L126.974 394.469C127.619 394.766 128.255 395.059 128.864 395.355C130.159 395.985 131.309 396.624 132.128 397.333C132.947 398.041 133.404 398.791 133.39 399.648C133.374 400.514 132.875 401.563 131.601 402.862C130.333 404.156 129.173 404.82 128.156 405.097C127.142 405.373 126.255 405.267 125.519 404.994C124.781 404.72 124.192 404.275 123.788 403.87C123.587 403.668 123.434 403.479 123.334 403.331C123.284 403.256 123.249 403.196 123.228 403.152C123.216 403.127 123.211 403.114 123.209 403.108C123.206 403.052 123.188 402.998 123.177 402.965C123.161 402.918 123.138 402.863 123.112 402.803C123.058 402.682 122.981 402.526 122.884 402.341C122.69 401.97 122.411 401.471 122.068 400.885C121.38 399.713 120.431 398.184 119.381 396.619C118.332 395.054 117.18 393.448 116.087 392.124C115.002 390.81 113.951 389.741 113.102 389.283M113.102 389.283C113.102 389.283 113.102 389.283 113.103 389.284L112.982 389.502L113.1 389.282C113.101 389.283 113.101 389.283 113.102 389.283Z" fill="#F3D5B3" stroke="#E9C9A6" stroke-width="0.5"/>
<path d="M367.92 396.922H280.194C279.3 394.466 279.3 391.489 279.449 388.735C279.97 377.123 280.491 365.587 281.087 353.975C281.236 350.551 281.459 346.979 283.47 344.225C288.311 337.6 298.364 340.131 305.29 339.238C314.599 338.047 322.493 332.911 329.195 326.584C339.323 316.983 350.196 311.996 362.781 308.721C372.388 338.345 381.771 367.671 381.771 367.671C381.771 367.671 392.197 390.298 367.92 396.922Z" fill="#F3D5B3"/>
<path d="M333.369 401.906H153.299C147.788 401.906 143.32 397.441 143.32 391.933V277.308C143.32 271.8 147.788 267.334 153.299 267.334H333.443C338.954 267.334 343.422 271.8 343.422 277.308V391.933C343.348 397.441 338.88 401.906 333.369 401.906Z" fill="#DCDCDB"/>
<path d="M243.036 348.317C250.809 348.317 257.111 342.019 257.111 334.249C257.111 326.48 250.809 320.182 243.036 320.182C235.262 320.182 228.961 326.48 228.961 334.249C228.961 342.019 235.262 348.317 243.036 348.317Z" fill="#AAAAAA"/>
</g>
</svg>
