<svg width="649" height="596" viewBox="0 0 649 596" fill="none" xmlns="http://www.w3.org/2000/svg">
<rect width="649" height="596" fill="url(#paint0_linear)"/>
<mask id="mask0" mask-type="alpha" maskUnits="userSpaceOnUse" x="121" y="83" width="406" height="430">
<rect x="121" y="83" width="406" height="429.524" fill="#C4C4C4"/>
</mask>
<g mask="url(#mask0)">
<path d="M444.144 484.469H214.92C213.613 484.469 212.48 483.424 212.48 482.03V480.113C212.48 478.806 213.526 477.674 214.92 477.674H444.144C445.451 477.674 446.584 478.719 446.584 480.113V482.03C446.497 483.337 445.451 484.469 444.144 484.469Z" fill="#CCCCCC"/>
<path d="M368.43 196.524C368.43 196.524 379.756 186.592 380.191 181.887C380.627 177.182 378.885 166.902 368.43 174.481V196.524Z" fill="#E5C19E"/>
<path d="M282.268 197.831C282.268 197.831 269.896 189.292 268.851 184.675C267.892 180.057 268.415 169.689 279.654 175.962L282.268 197.831Z" fill="#E5C19E"/>
<path d="M306.052 240.956C306.052 240.956 308.318 262.389 288.453 263.609C288.453 263.609 297.34 291.053 327.659 291.053C357.978 291.053 370.089 262.999 370.089 262.999C370.089 262.999 350.224 262.737 347.959 240.956C347.959 240.956 329.837 219.524 306.052 240.956Z" fill="#E5C19E"/>
<path d="M319.641 117.676C319.641 117.676 355.624 120.289 364.336 140.851C372.962 161.412 369.651 205.846 368.431 215.952C367.211 226.059 348.915 254.897 332.71 254.897C316.505 254.897 284.792 235.381 281.568 205.759C278.344 176.136 275.469 150.87 283.572 135.275C291.587 119.68 319.641 117.676 319.641 117.676Z" fill="#F3D5B3"/>
<path d="M368.258 183.019C368.258 183.019 376.796 160.541 378.364 143.813L358.5 154.617C358.5 154.617 367.038 153.397 368.258 183.019Z" fill="#242424"/>
<path d="M371.221 167.25C340.03 157.492 330.969 169.428 330.969 169.428L318.772 169.69C293.157 158.712 276.168 173.262 276.168 173.262C276.952 177.618 279.392 178.228 279.392 178.228C280.176 184.849 282.615 201.316 302.131 201.316C318.772 201.316 324.086 178.228 324.086 178.228H327.31C331.753 193.649 338.288 199.748 351.269 199.748C364.251 199.748 368.258 189.99 369.13 183.107C369.914 176.224 372.092 173.262 372.092 173.262L371.221 167.25ZM302.915 198.789C288.627 200.967 280.524 184.152 283.138 173.088C283.138 173.088 290.892 168.209 304.222 168.906C317.465 169.603 320.079 174.917 319.991 176.747C319.817 178.576 317.116 196.611 302.915 198.789ZM347.61 197.308C333.322 195.13 330.708 177.095 330.621 175.266C330.534 173.436 333.06 168.034 346.39 167.424C359.633 166.727 367.474 171.607 367.474 171.607C369.914 182.671 361.898 199.486 347.61 197.308Z" fill="#242424"/>
<path d="M475.248 471.663H235.917L227.466 386.107C227.466 386.107 227.292 388.546 227.03 392.467C226.42 400.308 225.113 414.161 222.848 427.839C222.848 427.926 222.848 427.927 222.848 428.014C221.716 434.635 220.409 441.169 218.928 447.007C216.401 456.329 213.352 463.735 209.431 466.523C195.491 476.629 193.139 475.409 193.139 475.409C193.139 475.409 195.491 469.485 191.658 468.527C187.824 467.655 188.957 468.875 186.43 466C186.43 466 175.714 457.113 175.191 456.068C174.668 454.935 175.366 451.886 171.184 451.712C171.184 451.712 181.638 444.48 183.642 443.347C183.642 443.347 188.957 413.551 193.923 385.41C197.495 365.197 200.893 345.942 202.113 339.234C204.988 323.29 209.17 293.406 228.163 284.955C247.156 276.417 285.404 263.261 285.404 263.261C285.404 263.261 292.287 260.822 293.071 262.826C293.071 262.826 294.639 271.712 303.438 277.724C308.056 280.86 314.678 283.3 324.087 283.3C336.981 283.3 345.694 279.728 351.531 275.459C358.24 270.58 361.376 264.829 362.944 262.477C362.944 262.477 364.948 260.038 367.998 260.735C371.047 261.432 441.269 282.951 446.497 298.46C448.936 305.778 459.13 337.23 469.236 368.333C480.476 403.009 491.453 437.336 491.453 437.336C491.453 437.336 503.651 463.909 475.248 471.663Z" fill="#BC065D"/>
<path d="M417.306 332.525V450.056H259.61L244.015 335.836C244.015 335.836 242.098 328.518 248.981 319.892C254.818 312.574 292.195 285.827 303.434 277.811C308.051 280.948 314.673 283.387 324.082 283.387C336.977 283.387 345.689 279.815 351.527 275.546H351.788C351.788 275.546 396.57 308.74 406.851 318.15C417.306 327.646 417.306 332.525 417.306 332.525Z" fill="#BC065D"/>
<path d="M149.925 463.473C149.925 463.473 144.784 466.174 148.444 475.496C152.103 484.818 165.956 491.788 178.24 488.478C190.612 485.167 187.301 478.545 186.081 473.144C184.862 467.742 177.369 458.42 174.058 458.071C170.66 457.723 159.508 456.59 149.925 463.473Z" fill="#333333"/>
<path d="M393.002 103.562C393.002 103.562 381.676 116.195 356.584 109.225C331.492 102.255 296.73 96.7662 294.203 118.896C294.203 118.896 266.062 119.593 278.695 178.14C278.695 178.14 284.532 153.223 301.783 140.59C301.783 140.59 312.325 157.056 337.591 157.056C362.857 157.056 405.113 146.776 405.113 103.039C405.113 103.039 397.359 119.767 379.498 119.767C379.411 119.854 393.002 114.104 393.002 103.562Z" fill="#0D0C0C"/>
<path d="M227.9 392.554C227.203 404.142 225.287 415.904 222.934 427.665C222.934 427.752 222.934 427.752 222.934 427.84C221.715 434.2 220.321 440.56 219.014 446.833C216.487 456.155 213.438 463.561 209.517 466.349C195.577 476.455 193.225 475.235 193.225 475.235C193.225 475.235 195.577 469.311 191.744 468.352C187.91 467.481 189.043 468.701 186.516 465.826C186.516 465.826 175.8 456.939 175.277 455.894C174.755 454.761 175.452 451.712 171.27 451.538C171.27 451.538 181.725 444.306 183.728 443.174C183.728 443.174 189.043 413.377 194.009 385.236C205.161 384.626 217.707 388.634 227.116 392.206C227.465 392.38 227.726 392.467 227.9 392.554Z" fill="#F3D5B3"/>
<path d="M166.46 462.661C166.218 462.723 166.218 462.723 166.218 462.723L166.218 462.724L166.218 462.726L166.22 462.733L166.228 462.763L166.258 462.882C166.284 462.986 166.322 463.139 166.37 463.335C166.467 463.727 166.602 464.292 166.76 464.981C167.075 466.359 167.478 468.232 167.829 470.214C168.18 472.197 168.478 474.283 168.584 476.088C168.638 476.991 168.643 477.818 168.584 478.525C168.526 479.236 168.404 479.806 168.214 480.204C167.416 481.883 165.941 482.763 164.501 482.641C163.068 482.519 161.57 481.395 160.757 478.853C159.914 476.219 158.207 473.062 156.721 470.574C155.976 469.327 155.283 468.244 154.777 467.473C154.524 467.087 154.317 466.779 154.174 466.568C154.102 466.462 154.046 466.38 154.008 466.324L153.964 466.261L153.953 466.245L153.95 466.241L153.949 466.24L153.949 466.24C153.949 466.24 153.949 466.24 153.744 466.382M153.744 466.382L153.949 466.24L153.508 466.466L153.744 466.382ZM153.744 466.382L153.508 466.466L153.509 466.466L153.509 466.468L153.511 466.473L153.518 466.493L153.546 466.573C153.57 466.643 153.605 466.747 153.649 466.879C153.737 467.144 153.859 467.523 153.996 467.983C154.272 468.902 154.608 470.136 154.854 471.401C155.1 472.67 155.251 473.952 155.166 474.974C155.079 476.016 154.759 476.676 154.18 476.887L154.163 476.893L154.148 476.901C153.502 477.243 152.887 477.519 152.244 477.621C151.609 477.721 150.934 477.652 150.165 477.282C148.61 476.533 146.666 474.548 143.965 470.208L143.944 470.145C143.924 470.086 143.894 469.998 143.858 469.884C143.784 469.658 143.68 469.329 143.559 468.923C143.318 468.11 143.01 466.987 142.745 465.745C142.479 464.503 142.257 463.148 142.185 461.869C142.113 460.588 142.192 459.406 142.513 458.495C143.187 456.782 145.027 456.131 146.937 456.079C147.883 456.053 148.82 456.177 149.588 456.377C149.972 456.477 150.31 456.595 150.583 456.722C150.859 456.85 151.055 456.979 151.168 457.094C151.263 457.191 151.373 457.264 151.499 457.3C151.627 457.336 151.753 457.329 151.872 457.293C152.098 457.224 152.3 457.048 152.476 456.846C152.834 456.437 153.198 455.79 153.548 455.136C153.625 454.992 153.701 454.847 153.778 454.703C154.053 454.183 154.32 453.677 154.577 453.27C154.742 453.01 154.894 452.805 155.032 452.666C155.178 452.52 155.268 452.491 155.307 452.491C155.517 452.491 155.853 452.464 156.256 452.431C156.427 452.417 156.609 452.403 156.8 452.389C157.45 452.341 158.212 452.298 158.962 452.318C159.714 452.337 160.438 452.42 161.018 452.612C161.6 452.806 161.995 453.097 162.164 453.506C162.602 454.568 163.437 455.358 164.279 455.554C164.708 455.654 165.147 455.6 165.516 455.333C165.882 455.068 166.148 454.62 166.287 453.996C166.526 452.924 167.552 451.802 168.855 451.02C170.157 450.238 171.648 449.849 172.753 450.143L172.753 450.143L172.763 450.146C173.908 450.399 174.941 451.037 175.907 451.799C176.389 452.179 176.849 452.587 177.297 452.988C177.364 453.048 177.43 453.108 177.497 453.168C177.871 453.505 178.238 453.835 178.595 454.131C178.783 454.3 179.018 454.581 179.304 454.967C179.589 455.352 179.914 455.827 180.281 456.37C180.384 456.522 180.49 456.68 180.599 456.842C181.266 457.832 182.048 458.994 182.935 460.191C184.998 462.975 187.659 465.994 190.843 467.564C191.628 467.951 192.437 468.324 193.237 468.692L193.374 468.755C194.128 469.102 194.873 469.445 195.586 469.792C197.101 470.53 198.451 471.279 199.414 472.114C200.376 472.947 200.922 473.836 200.904 474.856C200.886 475.887 200.294 477.124 198.8 478.648C197.312 480.166 195.948 480.948 194.75 481.275C193.555 481.6 192.507 481.476 191.64 481.154C190.769 480.83 190.075 480.305 189.599 479.828C189.362 479.589 189.182 479.366 189.063 479.19C189.003 479.102 188.961 479.029 188.935 478.975C188.916 478.936 188.911 478.917 188.91 478.914C188.907 478.853 188.888 478.792 188.874 478.752C188.855 478.698 188.83 478.635 188.799 478.566C188.737 478.426 188.647 478.244 188.534 478.028C188.308 477.594 187.981 477.011 187.58 476.326C186.776 474.954 185.666 473.166 184.438 471.334C183.211 469.503 181.864 467.624 180.586 466.076C179.318 464.537 178.092 463.292 177.106 462.761M177.106 462.761C177.107 462.761 177.107 462.761 177.108 462.761L176.987 462.98L177.105 462.76C177.105 462.76 177.106 462.76 177.106 462.761Z" fill="#F3D5B3" stroke="#E9C9A6" stroke-width="0.5"/>
<path d="M475.247 471.663H372.614C371.568 468.788 371.568 465.303 371.743 462.08C372.353 448.488 372.962 434.984 373.659 421.393C373.834 417.385 374.095 413.203 376.447 409.979C382.11 402.225 393.872 405.187 401.975 404.142C412.865 402.748 422.101 396.736 429.942 389.331C441.791 378.092 454.511 372.254 469.235 368.421C480.474 403.096 491.452 437.423 491.452 437.423C491.452 437.423 503.649 463.909 475.247 471.663Z" fill="#F3D5B3"/>
<path d="M434.822 477.499H224.155C217.708 477.499 212.48 472.272 212.48 465.825V331.653C212.48 325.206 217.708 319.979 224.155 319.979H434.909C441.356 319.979 446.584 325.206 446.584 331.653V465.825C446.497 472.272 441.269 477.499 434.822 477.499Z" fill="#DCDCDB"/>
<path d="M329.142 414.77C338.236 414.77 345.609 407.398 345.609 398.304C345.609 389.209 338.236 381.837 329.142 381.837C320.048 381.837 312.676 389.209 312.676 398.304C312.676 407.398 320.048 414.77 329.142 414.77Z" fill="#AAAAAA"/>
</g>
<defs>
<linearGradient id="paint0_linear" x1="-2.97323e-07" y1="95" x2="619" y2="596" gradientUnits="userSpaceOnUse">
<stop stop-color="#1978DC" stop-opacity="0.43"/>
<stop offset="1" stop-color="#273172" stop-opacity="0.17"/>
</linearGradient>
</defs>
</svg>
