<svg width="48" height="48" viewBox="0 0 48 48" fill="none" xmlns="http://www.w3.org/2000/svg">
<circle cx="24" cy="24" r="24" fill="white"/>
<path d="M19.9201 27.56C19.2401 27.6733 18.3334 27.22 17.9934 27.1067L17.4268 28.1267C17.4268 28.1267 18.4468 28.58 19.3534 28.6933V29.6H20.4868V28.58C21.5068 28.24 22.0734 27.3333 22.1868 26.54C22.1868 25.6333 21.5068 24.9533 20.0334 24.3867C19.5801 24.16 18.7868 23.82 18.7868 23.3667C18.7868 22.8 19.2401 22.46 19.9201 22.46C20.7134 22.46 21.5068 22.8 21.5068 22.8L21.9601 21.78C21.9601 21.78 21.3934 21.5533 20.6001 21.3267V20.5333H19.4668V21.3267C18.4468 21.5533 17.7668 22.2333 17.6534 23.2533C17.6534 24.6133 19.1268 25.18 19.6934 25.4067C20.3734 25.6333 21.1668 26.0867 21.1668 26.4267C21.1668 26.88 20.7134 27.4467 19.9201 27.56V27.56Z" fill="#4886FF"/>
<path d="M14.9336 18.2667V31.8667H33.0669V18.2667H14.9336ZM31.9336 30.7334H16.0669V19.4001H31.9336V30.7334Z" fill="#4886FF"/>
<path d="M24 21.6666H30.8V22.8H24V21.6666Z" fill="#4886FF"/>
<path d="M24 23.9333H30.8V25.0667H24V23.9333Z" fill="#4886FF"/>
<path d="M24 26.2H27.4V27.3333H24V26.2Z" fill="#4886FF"/>
</svg>
