<svg width="27" height="27" viewBox="0 0 27 27" fill="none" xmlns="http://www.w3.org/2000/svg">
<g clip-path="url(#clip0)">
<path d="M15.2917 9.68723H17.1715C17.2963 9.68723 17.3977 9.55963 17.3977 9.40245V7.03475C17.3977 6.87755 17.2963 6.75 17.1715 6.75H15.2917C15.1667 6.75 15.0655 6.87758 15.0655 7.03475V7.74864H12.4999C12.2937 7.74864 12.1267 7.95905 12.1267 8.21857V13.3H10.8046V12.1829C10.8046 11.9721 10.669 11.8012 10.5014 11.8012H7.98101C7.81332 11.8012 7.67773 11.9721 7.67773 12.1829V15.3573C7.67773 15.5681 7.8133 15.7391 7.98101 15.7391H10.5014C10.669 15.7391 10.8046 15.5681 10.8046 15.3573V14.2399H12.1267V19.3214C12.1267 19.5809 12.2937 19.7913 12.4999 19.7913H15.0655V20.5052C15.0655 20.6623 15.1667 20.79 15.2917 20.79H17.1715C17.2964 20.79 17.3977 20.6623 17.3977 20.5052V18.1375C17.3977 17.9804 17.2964 17.8527 17.1715 17.8527H15.2917C15.1667 17.8527 15.0655 17.9804 15.0655 18.1375V18.8514H12.8731V14.24H15.0655V14.9539C15.0655 15.111 15.1667 15.2386 15.2917 15.2386H17.1715C17.2964 15.2386 17.3977 15.111 17.3977 14.9539V12.5862C17.3977 12.4291 17.2964 12.3014 17.1715 12.3014H15.2917C15.1667 12.3014 15.0655 12.4291 15.0655 12.5862V13.3001H12.8731V8.68859H15.0655V9.40245C15.0655 9.55963 15.1667 9.68723 15.2917 9.68723Z" fill="#E0E0E0"/>
<path d="M13.3848 25.8039C20.2442 25.8039 25.8048 20.2432 25.8048 13.3839C25.8048 6.52449 20.2442 0.963867 13.3848 0.963867C6.52547 0.963867 0.964844 6.52449 0.964844 13.3839C0.964844 20.2432 6.52547 25.8039 13.3848 25.8039Z" stroke="#E0E0E0" stroke-width="2"/>
</g>
<defs>
<clipPath id="clip0">
<rect width="27" height="27" fill="white"/>
</clipPath>
</defs>
</svg>
