<svg width="48" height="48" viewBox="0 0 48 48" fill="none" xmlns="http://www.w3.org/2000/svg">
<circle cx="24" cy="24" r="24" fill="white"/>
<path d="M23.7333 14.1777C24.4936 14.1777 25.2228 14.4798 25.7604 15.0174C26.298 15.555 26.6 16.2841 26.6 17.0444C26.6 17.8047 26.298 18.5338 25.7604 19.0714C25.2228 19.609 24.4936 19.9111 23.7333 19.9111C22.973 19.9111 22.2439 19.609 21.7063 19.0714C21.1687 18.5338 20.8667 17.8047 20.8667 17.0444C20.8667 16.2841 21.1687 15.555 21.7063 15.0174C22.2439 14.4798 22.973 14.1777 23.7333 14.1777V14.1777ZM22.7778 33.2888H19.9111V27.5555H18V20.8666H29.4667V27.5555H27.5556V33.2888H24.6889V29.4666H22.7778V33.2888Z" fill="#4886FF"/>
</svg>
